<svg width="18" height="16" viewBox="0 0 18 16" fill="none" xmlns="http://www.w3.org/2000/svg">
<path d="M4.152 13.8696C4.27332 13.9196 4.40954 13.9424 4.54604 13.9357C4.68253 13.929 4.81414 13.893 4.92675 13.8316L14.6768 8.48786C14.7764 8.43322 14.8578 8.36027 14.914 8.27527C14.9703 8.19027 14.9996 8.09575 14.9996 7.9998C14.9996 7.90385 14.9703 7.80933 14.914 7.72433C14.8578 7.63933 14.7764 7.56638 14.6768 7.51174L4.92675 2.16799C4.81423 2.10635 4.68256 2.07026 4.54599 2.06362C4.40941 2.05698 4.27315 2.08004 4.15195 2.13031C4.03074 2.18058 3.92922 2.25614 3.85837 2.34881C3.78752 2.44148 3.75005 2.54773 3.75 2.65605V13.3435C3.74998 13.4519 3.78743 13.5583 3.85829 13.651C3.92915 13.7437 4.03073 13.8193 4.152 13.8696Z" fill="black"/>
</svg>
