<?xml version="1.0" encoding="utf-8"?>
<!-- Generator: Adobe Illustrator 22.0.0, SVG Export Plug-In . SVG Version: 6.00 Build 0)  -->
<svg version="1.1" id="Layer_1" xmlns="http://www.w3.org/2000/svg" xmlns:xlink="http://www.w3.org/1999/xlink" x="0px" y="0px"
	 viewBox="133 45.2 362 271.5" style="enable-background:new 133 45.2 362 271.5;" xml:space="preserve">
<style type="text/css">
	.st0{fill:#808080;}
</style>
<g id="icons">
	<path id="email" class="st0" d="M434.7,45.2H193.3c-33.2,0-60.3,27.1-60.3,60.3v150.8c0,33.2,27.1,60.3,60.3,60.3h241.3
		c33.2,0,60.3-27.2,60.3-60.3V105.6C495,72.4,467.8,45.2,434.7,45.2z M458.8,132.7l-119.2,79.9c-7.5,4.5-16.6,7.5-25.6,7.5
		s-18.1-3-25.6-7.5l-119.2-79.9c-6-4.5-7.5-13.6-3-21.1c4.5-6,13.6-7.5,21.1-3l119.2,79.9c4.5,3,12.1,3,16.6,0l119.2-79.9
		c7.5-4.5,16.6-3,21.1,4.5C466.3,119.2,464.8,128.2,458.8,132.7z"/>
</g>
</svg>
