<?xml version="1.0" encoding="utf-8"?>
<!-- Generator: Adobe Illustrator 22.0.0, SVG Export Plug-In . SVG Version: 6.00 Build 0)  -->
<svg version="1.1" id="Layer_1" xmlns="http://www.w3.org/2000/svg" xmlns:xlink="http://www.w3.org/1999/xlink" x="0px" y="0px"
	 viewBox="181.3 36.2 265.5 289.6" style="enable-background:new 181.3 36.2 265.5 289.6;" xml:space="preserve">
<style type="text/css">
	.st0{fill:#002661;}
</style>
<path class="st0" d="M422.6,193.1v120.7c0,7.2-4.8,12.1-12.1,12.1H217.5c-7.2,0-12.1-4.8-12.1-12.1V193.1h96.5v108.6h24.1V193.1
	H422.6z M301.9,108.6H193.3c-7.2,0-12.1,4.8-12.1,12.1v36.2c0,7.2,4.8,12.1,12.1,12.1h108.6V108.6z M434.7,108.6H326.1v60.3h108.6
	c7.2,0,12.1-4.8,12.1-12.1v-36.2C446.7,113.4,441.9,108.6,434.7,108.6z M399.7,95.3l1.2-4.8c4.8-12.1,3.6-26.5-3.6-37.4
	c-7.2-10.9-20.5-16.9-33.8-16.9c-16.9,0-31.4,9.7-37.4,25.3l-24.1,59.1h60.3C378,120.7,393.6,111,399.7,95.3z M349,70
	c2.4-6,8.4-9.7,14.5-9.7c4.8,0,9.7,2.4,13.3,7.2c2.4,4.8,3.6,9.7,1.2,14.5l-1.2,4.8c-2.4,6-8.4,9.7-14.5,9.7h-24.1L349,70z
	 M301.9,61.5c-6-15.7-21.7-25.3-37.4-25.3c-13.3,0-26.5,6-33.8,18.1c-7.2,10.9-8.4,24.1-3.6,37.4l1.2,4.8
	c6,14.5,21.7,24.1,37.4,24.1h59.1L301.9,61.5z M279,70l10.9,26.5h-24.1c-6,0-12.1-3.6-14.5-9.7l-2.4-4.8c-1.2-4.8-1.2-10.9,2.4-14.5
	c2.4-4.8,7.2-7.2,13.3-7.2C270.6,60.3,276.6,64,279,70z"/>
</svg>
