<?xml version="1.0" encoding="utf-8"?>
<!-- Generator: Adobe Illustrator 19.0.0, SVG Export Plug-In . SVG Version: 6.00 Build 0)  -->
<svg version="1.1" id="Capa_1" xmlns="http://www.w3.org/2000/svg" xmlns:xlink="http://www.w3.org/1999/xlink" x="0px" y="0px"
	 width="32px" height="14.4px" viewBox="-54.9 0.9 32 14.4" style="enable-background:new -54.9 0.9 32 14.4;" xml:space="preserve"
	>
<style type="text/css">
	.st0{fill:#002661;stroke:#000000;stroke-miterlimit:10;}
</style>
<path class="st0" d="M-22.9,5.7c0-1.7-1.4-3.1-3.1-3.1c-0.6,0-1.2,0.2-1.7,0.5h0c0,0,0,0,0,0c-0.2,0.1-0.4,0.3-0.6,0.5l0,0
	c-0.6,0.6-1.7,1.5-2.4,2.4c-0.2-0.4-0.4-0.8-0.7-1.1c-3.1-2.7-6.7-3.8-10.9-3.8c-1.4,0-2.7,0.1-4,0.4c0-0.5-0.1-0.7-0.1-0.7h-8.2
	c0,0-0.4,3-0.4,6.7c0,3.7,0.4,6.7,0.4,6.7h8.2c0,0,0.1-0.8,0.1-1.9c1.2-0.2,2.5,0.1,3.9,1c1.8,1.2,4.1,1.9,6.5,1.9
	c2.5,0,4.6-0.7,6.4-2l0,0c0,0,0,0,0.1-0.1c0.5-0.4,1-0.7,1.4-1.2c0.3-0.4,0.8-0.8,1.5-1.5c2.4-2.3,2.7-2.8,2.7-2.8s0,0,0,0
	C-23.2,7.3-22.9,6.5-22.9,5.7z M-24.8,6.9c-0.4,0.4-2.2,2.2-2.6,2.7c-1.2,1.2-1.8,1.8-2.1,2.1l0,0c-0.2,0.2-0.4,0.3-0.6,0.5
	c-1.6,1.1-3.6,1.7-5.7,1.7c-2.2,0-4.1-0.6-5.7-1.7h0c-1.4-0.8-3-1.4-4.6-1.2C-46,9.8-46,8.6-46,7.6c0-1.4-0.1-3.2-0.2-4.6
	c1.2-0.3,2.5-0.4,3.9-0.4c4.1,0,7.8,1.4,10,3.5c0.3,0.3,0.4,0.7,0.4,1.1c0,0.9-0.7,1.7-1.7,1.7c0,0-0.1,0-0.1,0l0,0
	c-0.9,0-2.2-0.4-4.4-1.2l-0.5,1.3c2.4,0.9,4,1.3,5.1,1.3v0c1.4,0,2.6-0.9,3-2.2v0c0.5-0.8,2.3-2.5,3.3-3.4l0,0c0,0,0,0,0,0
	c0.2-0.2,0.4-0.3,0.5-0.4c0.2-0.1,0.4-0.2,0.8-0.2c0.9,0,1.7,0.7,1.7,1.7C-24.3,6.2-24.5,6.6-24.8,6.9z"/>
</svg>
