<?xml version="1.0" encoding="utf-8"?>
<!-- Generator: Adobe Illustrator 16.0.0, SVG Export Plug-In . SVG Version: 6.00 Build 0)  -->
<!DOCTYPE svg PUBLIC "-//W3C//DTD SVG 1.1//EN" "http://www.w3.org/Graphics/SVG/1.1/DTD/svg11.dtd">
<svg version="1.1" id="Layer_1" xmlns="http://www.w3.org/2000/svg" xmlns:xlink="http://www.w3.org/1999/xlink" x="0px" y="0px"
	 width="267px" height="38px" viewBox="0 0 267 38" enable-background="new 0 0 267 38" xml:space="preserve">
<path fill="#002561" d="M7,38c-3.86,0-7-3.141-7-7V7c0-3.859,3.14-7,7-7h253c3.859,0,7,3.141,7,7v24c0,3.859-3.141,7-7,7H7z"/>
<g>
	<path fill="#FFFFFF" d="M25.669,16.806c-0.388-0.004-0.726,0.038-1.015,0.125c-0.289,0.088-0.533,0.199-0.732,0.333
		c-0.2,0.134-0.356,0.277-0.47,0.43c-0.114,0.153-0.186,0.293-0.215,0.419c0.093,0.086,0.182,0.188,0.266,0.305
		c0.084,0.118,0.157,0.246,0.218,0.386c0.062,0.14,0.11,0.289,0.145,0.447c0.036,0.159,0.051,0.322,0.048,0.489v5.06H22.03v-5.083
		c-0.004-0.126-0.017-0.255-0.039-0.386c-0.022-0.13-0.063-0.258-0.12-0.383c-0.058-0.125-0.137-0.243-0.238-0.355
		s-0.231-0.21-0.392-0.296c0.056-0.253,0.14-0.505,0.252-0.755c0.112-0.25,0.254-0.489,0.428-0.718
		c0.173-0.229,0.378-0.443,0.615-0.64c0.237-0.198,0.51-0.369,0.819-0.515c0.309-0.145,0.656-0.259,1.04-0.341
		c0.384-0.082,0.809-0.123,1.275-0.123c0.552,0,1.043,0.05,1.473,0.151c0.431,0.101,0.808,0.241,1.132,0.422
		c0.324,0.181,0.597,0.394,0.819,0.64c0.222,0.246,0.401,0.515,0.54,0.808c0.138,0.293,0.237,0.601,0.299,0.925
		s0.092,0.654,0.092,0.99v5.658h-1.901v-5.815c0-0.264-0.041-0.525-0.123-0.783c-0.082-0.257-0.22-0.488-0.414-0.693
		c-0.194-0.205-0.447-0.372-0.761-0.5C26.514,16.881,26.128,16.813,25.669,16.806z"/>
	<path fill="#FFFFFF" d="M33.394,22.391c0.103,0.231,0.237,0.422,0.403,0.573c0.166,0.151,0.352,0.263,0.559,0.335
		c0.207,0.072,0.415,0.109,0.623,0.109c0.216,0,0.427-0.017,0.632-0.05c0.205-0.034,0.388-0.097,0.548-0.19
		c0.161-0.093,0.289-0.222,0.386-0.386c0.097-0.164,0.146-0.376,0.146-0.637c-0.007-0.171-0.061-0.33-0.159-0.475
		c-0.099-0.146-0.229-0.277-0.392-0.395c-0.162-0.117-0.351-0.22-0.567-0.307c-0.216-0.088-0.443-0.163-0.682-0.227
		c-0.242-0.056-0.49-0.118-0.744-0.185s-0.499-0.148-0.735-0.243c-0.236-0.095-0.46-0.207-0.671-0.335
		c-0.21-0.128-0.394-0.285-0.55-0.47c-0.157-0.185-0.28-0.399-0.369-0.643s-0.134-0.528-0.134-0.853c0-0.35,0.047-0.665,0.143-0.942
		c0.095-0.278,0.226-0.521,0.391-0.73c0.166-0.208,0.36-0.385,0.582-0.528c0.222-0.143,0.46-0.26,0.716-0.349
		c0.255-0.09,0.519-0.153,0.791-0.19c0.272-0.037,0.541-0.052,0.805-0.044c0.473,0.011,0.912,0.082,1.317,0.212
		c0.404,0.13,0.753,0.321,1.045,0.573c0.292,0.251,0.522,0.563,0.688,0.936c0.166,0.373,0.249,0.805,0.249,1.297h-1.901
		c-0.008-0.171-0.032-0.344-0.073-0.517s-0.109-0.331-0.204-0.473S36.01,17,35.848,16.909s-0.368-0.141-0.618-0.148
		c-0.313-0.011-0.572,0.013-0.777,0.073s-0.367,0.144-0.486,0.251c-0.12,0.108-0.201,0.234-0.246,0.377s-0.067,0.293-0.067,0.45
		c0,0.153,0.047,0.288,0.143,0.405c0.095,0.118,0.225,0.224,0.391,0.319c0.166,0.095,0.358,0.18,0.576,0.254
		c0.218,0.075,0.448,0.146,0.691,0.212c0.525,0.142,0.989,0.297,1.392,0.467c0.402,0.169,0.74,0.366,1.012,0.59
		s0.478,0.48,0.618,0.769c0.14,0.289,0.209,0.623,0.209,1.003c-0.004,0.395-0.052,0.746-0.146,1.051s-0.223,0.571-0.389,0.796
		c-0.166,0.226-0.361,0.415-0.587,0.568s-0.471,0.276-0.735,0.369c-0.265,0.093-0.542,0.16-0.833,0.201
		c-0.291,0.041-0.583,0.062-0.877,0.062c-0.325,0-0.644-0.028-0.959-0.083c-0.315-0.056-0.614-0.144-0.897-0.263
		c-0.283-0.119-0.544-0.27-0.783-0.453c-0.239-0.183-0.444-0.401-0.615-0.654s-0.303-0.543-0.394-0.869s-0.131-0.69-0.12-1.093
		h1.896C33.242,21.884,33.291,22.16,33.394,22.391z"/>
	<path fill="#FFFFFF" d="M36.611,29.38l-0.005-2.058h-0.828l0.022-1.442h2.583l-0.011,3.5H36.611z"/>
	<path fill="#FFFFFF" d="M53.172,24.801h-1.829l-0.033-1.006c-0.134,0.179-0.285,0.344-0.453,0.495
		c-0.167,0.151-0.351,0.282-0.548,0.392c-0.198,0.11-0.411,0.196-0.64,0.257c-0.229,0.061-0.473,0.092-0.729,0.092
		c-0.574,0-1.053-0.078-1.437-0.234c-0.384-0.157-0.691-0.384-0.923-0.682c-0.231-0.298-0.394-0.666-0.489-1.102
		c-0.095-0.436-0.143-0.932-0.143-1.487l-0.006-2.539c0-0.257-0.037-0.514-0.112-0.771c-0.075-0.257-0.199-0.489-0.375-0.696
		c-0.175-0.207-0.405-0.375-0.69-0.506c-0.285-0.13-0.637-0.199-1.054-0.207c-0.339-0.004-0.639,0.032-0.9,0.106
		c-0.261,0.075-0.485,0.174-0.671,0.299c-0.187,0.125-0.335,0.267-0.447,0.425c-0.112,0.159-0.188,0.318-0.229,0.478
		c0.231,0.16,0.398,0.386,0.5,0.677c0.103,0.291,0.154,0.615,0.154,0.973l0.011,3.506h1.006l0.005,1.532h-2.885v-5.06
		c0-0.13-0.011-0.264-0.034-0.399c-0.022-0.136-0.063-0.267-0.12-0.392s-0.138-0.243-0.24-0.355
		c-0.103-0.112-0.234-0.21-0.395-0.296c0.056-0.253,0.141-0.505,0.254-0.755c0.114-0.25,0.255-0.489,0.425-0.718
		c0.169-0.229,0.371-0.443,0.604-0.64c0.233-0.198,0.497-0.369,0.792-0.515c0.294-0.145,0.621-0.259,0.981-0.341
		s0.756-0.123,1.188-0.123c0.526,0,0.994,0.05,1.403,0.151c0.41,0.101,0.769,0.241,1.077,0.422c0.307,0.181,0.566,0.395,0.777,0.643
		c0.21,0.248,0.381,0.519,0.512,0.811s0.224,0.603,0.279,0.931c0.056,0.328,0.084,0.662,0.084,1.001l-0.005,2.521
		c0.003,0.31,0.036,0.57,0.098,0.783s0.15,0.385,0.266,0.517s0.253,0.228,0.414,0.285c0.161,0.058,0.341,0.087,0.542,0.087
		c0.339,0,0.64-0.068,0.903-0.204c0.263-0.136,0.484-0.323,0.663-0.562c0.179-0.238,0.314-0.521,0.405-0.847
		s0.137-0.681,0.137-1.065l0.005-5.267h1.901V24.801z"/>
	<path fill="#FFFFFF" d="M54.285,18.505c0-0.354,0.046-0.681,0.137-0.981c0.091-0.3,0.216-0.571,0.375-0.813s0.347-0.456,0.565-0.64
		c0.218-0.185,0.456-0.339,0.713-0.464c0.257-0.125,0.528-0.219,0.813-0.283c0.285-0.063,0.575-0.095,0.869-0.095
		c0.484,0,0.936,0.066,1.353,0.198s0.778,0.333,1.082,0.604c0.304,0.27,0.542,0.611,0.716,1.023
		c0.173,0.412,0.258,0.896,0.254,1.451l0.006,6.295h-1.878l-0.006-5.977c0.007-0.674-0.121-1.167-0.386-1.479
		c-0.265-0.312-0.643-0.467-1.135-0.467c-0.437,0-0.789,0.136-1.057,0.408c-0.268,0.272-0.419,0.678-0.453,1.219H54.285z"/>
	<path fill="#FFFFFF" d="M66.708,16.806c-0.388-0.004-0.726,0.038-1.015,0.125c-0.289,0.088-0.533,0.199-0.732,0.333
		c-0.2,0.134-0.356,0.277-0.47,0.43c-0.114,0.153-0.186,0.293-0.215,0.419c0.093,0.086,0.182,0.188,0.266,0.305
		c0.084,0.118,0.157,0.246,0.218,0.386c0.062,0.14,0.11,0.289,0.145,0.447c0.036,0.159,0.051,0.322,0.048,0.489v5.06h-1.884v-5.083
		c-0.004-0.126-0.017-0.255-0.039-0.386c-0.022-0.13-0.063-0.258-0.12-0.383c-0.058-0.125-0.137-0.243-0.238-0.355
		s-0.231-0.21-0.392-0.296c0.056-0.253,0.14-0.505,0.252-0.755c0.112-0.25,0.254-0.489,0.428-0.718
		c0.173-0.229,0.378-0.443,0.615-0.64c0.237-0.198,0.51-0.369,0.819-0.515c0.309-0.145,0.656-0.259,1.04-0.341
		c0.384-0.082,0.809-0.123,1.275-0.123c0.552,0,1.043,0.05,1.473,0.151c0.431,0.101,0.808,0.241,1.132,0.422
		c0.324,0.181,0.597,0.394,0.819,0.64c0.222,0.246,0.401,0.515,0.54,0.808c0.138,0.293,0.237,0.601,0.299,0.925
		s0.092,0.654,0.092,0.99v5.658h-1.901v-5.815c0-0.264-0.041-0.525-0.123-0.783c-0.082-0.257-0.22-0.488-0.414-0.693
		c-0.194-0.205-0.447-0.372-0.761-0.5C67.552,16.881,67.167,16.813,66.708,16.806z"/>
	<path fill="#FFFFFF" d="M74.432,22.391c0.103,0.231,0.237,0.422,0.403,0.573c0.166,0.151,0.352,0.263,0.559,0.335
		c0.207,0.072,0.415,0.109,0.623,0.109c0.216,0,0.427-0.017,0.632-0.05c0.205-0.034,0.388-0.097,0.548-0.19
		c0.161-0.093,0.289-0.222,0.386-0.386c0.097-0.164,0.146-0.376,0.146-0.637c-0.007-0.171-0.061-0.33-0.159-0.475
		c-0.099-0.146-0.229-0.277-0.392-0.395c-0.162-0.117-0.351-0.22-0.567-0.307c-0.216-0.088-0.443-0.163-0.682-0.227
		c-0.242-0.056-0.49-0.118-0.744-0.185s-0.499-0.148-0.735-0.243c-0.236-0.095-0.46-0.207-0.671-0.335
		c-0.21-0.128-0.394-0.285-0.55-0.47c-0.157-0.185-0.28-0.399-0.369-0.643s-0.134-0.528-0.134-0.853c0-0.35,0.047-0.665,0.143-0.942
		c0.095-0.278,0.226-0.521,0.391-0.73c0.166-0.208,0.36-0.385,0.582-0.528c0.222-0.143,0.46-0.26,0.716-0.349
		c0.255-0.09,0.519-0.153,0.791-0.19c0.272-0.037,0.541-0.052,0.805-0.044c0.473,0.011,0.912,0.082,1.317,0.212
		c0.404,0.13,0.753,0.321,1.045,0.573c0.292,0.251,0.522,0.563,0.688,0.936c0.166,0.373,0.249,0.805,0.249,1.297h-1.901
		c-0.008-0.171-0.032-0.344-0.073-0.517s-0.109-0.331-0.204-0.473S77.049,17,76.887,16.909s-0.368-0.141-0.618-0.148
		c-0.313-0.011-0.572,0.013-0.777,0.073s-0.367,0.144-0.486,0.251c-0.12,0.108-0.201,0.234-0.246,0.377s-0.067,0.293-0.067,0.45
		c0,0.153,0.047,0.288,0.143,0.405c0.095,0.118,0.225,0.224,0.391,0.319c0.166,0.095,0.358,0.18,0.576,0.254
		c0.218,0.075,0.448,0.146,0.691,0.212c0.525,0.142,0.989,0.297,1.392,0.467c0.402,0.169,0.74,0.366,1.012,0.59
		s0.478,0.48,0.618,0.769c0.14,0.289,0.209,0.623,0.209,1.003c-0.004,0.395-0.052,0.746-0.146,1.051s-0.223,0.571-0.389,0.796
		c-0.166,0.226-0.361,0.415-0.587,0.568s-0.471,0.276-0.735,0.369c-0.265,0.093-0.542,0.16-0.833,0.201
		c-0.291,0.041-0.583,0.062-0.877,0.062c-0.325,0-0.644-0.028-0.959-0.083c-0.315-0.056-0.614-0.144-0.897-0.263
		c-0.283-0.119-0.544-0.27-0.783-0.453c-0.239-0.183-0.444-0.401-0.615-0.654s-0.303-0.543-0.394-0.869s-0.131-0.69-0.12-1.093
		h1.896C74.28,21.884,74.33,22.16,74.432,22.391z"/>
	<path fill="#FFFFFF" d="M80.82,18.483c0.104-0.5,0.266-0.952,0.486-1.359c0.22-0.406,0.502-0.752,0.847-1.04
		c0.345-0.287,0.754-0.509,1.23-0.666c0.475-0.157,1.022-0.235,1.641-0.235c0.522,0,0.991,0.058,1.406,0.173
		c0.416,0.116,0.782,0.279,1.099,0.489s0.588,0.465,0.813,0.763s0.409,0.63,0.551,0.995s0.245,0.76,0.311,1.186
		c0.065,0.425,0.098,0.87,0.098,1.336c0,0.437-0.033,0.859-0.098,1.27c-0.065,0.41-0.17,0.796-0.313,1.157s-0.328,0.692-0.553,0.992
		c-0.226,0.3-0.496,0.559-0.811,0.777s-0.678,0.387-1.09,0.506c-0.412,0.119-0.875,0.179-1.39,0.179
		c-0.518,0-0.983-0.06-1.395-0.179c-0.412-0.119-0.775-0.286-1.09-0.5c-0.315-0.214-0.584-0.471-0.808-0.771
		c-0.224-0.3-0.406-0.631-0.548-0.992c-0.142-0.362-0.245-0.749-0.311-1.16c-0.065-0.412-0.096-0.838-0.092-1.278
		c0-0.033-0.001-0.087-0.002-0.162c-0.002-0.074-0.003-0.151-0.003-0.229v-0.291h4.238l-0.011,1.487h-2.287
		c0.015,0.373,0.082,0.712,0.201,1.018c0.12,0.306,0.28,0.567,0.481,0.786s0.439,0.388,0.713,0.509s0.573,0.182,0.897,0.182
		c0.361,0,0.687-0.073,0.976-0.218c0.289-0.146,0.534-0.359,0.735-0.64c0.201-0.282,0.357-0.627,0.467-1.038
		c0.11-0.41,0.167-0.877,0.17-1.403c0-1.077-0.195-1.9-0.584-2.468c-0.389-0.568-0.979-0.853-1.77-0.853
		c-0.298,0-0.573,0.036-0.825,0.109c-0.251,0.073-0.474,0.181-0.668,0.324s-0.352,0.32-0.475,0.528
		c-0.123,0.209-0.205,0.447-0.246,0.716H80.82z"/>
	<path fill="#FFFFFF" d="M94.462,16.806c-0.388-0.004-0.726,0.038-1.015,0.125c-0.289,0.088-0.533,0.199-0.732,0.333
		c-0.2,0.134-0.356,0.277-0.47,0.43c-0.114,0.153-0.186,0.293-0.215,0.419c0.093,0.086,0.182,0.188,0.266,0.305
		c0.084,0.118,0.157,0.246,0.218,0.386c0.062,0.14,0.11,0.289,0.145,0.447c0.036,0.159,0.051,0.322,0.048,0.489v5.06h-1.884v-5.083
		c-0.004-0.126-0.017-0.255-0.039-0.386c-0.022-0.13-0.063-0.258-0.12-0.383c-0.058-0.125-0.137-0.243-0.238-0.355
		s-0.231-0.21-0.392-0.296c0.056-0.253,0.14-0.505,0.252-0.755c0.112-0.25,0.254-0.489,0.428-0.718
		c0.173-0.229,0.378-0.443,0.615-0.64c0.237-0.198,0.51-0.369,0.819-0.515c0.309-0.145,0.656-0.259,1.04-0.341
		c0.384-0.082,0.809-0.123,1.275-0.123c0.552,0,1.043,0.05,1.473,0.151c0.431,0.101,0.808,0.241,1.132,0.422
		c0.324,0.181,0.597,0.394,0.819,0.64c0.222,0.246,0.401,0.515,0.54,0.808c0.138,0.293,0.237,0.601,0.299,0.925
		s0.092,0.654,0.092,0.99v5.658h-1.901v-5.815c0-0.264-0.041-0.525-0.123-0.783c-0.082-0.257-0.22-0.488-0.414-0.693
		c-0.194-0.205-0.447-0.372-0.761-0.5C95.306,16.881,94.92,16.813,94.462,16.806z"/>
	<path fill="#FFFFFF" d="M102.865,24.801l-1.767-7.878h-1.213v-1.509h2.863l1.51,7.324l1.515-7.324h1.945l-2.08,9.387H102.865z"/>
	<path fill="#FFFFFF" d="M102.966,13.943v-1.392h-0.799v-1.398h2.359v1.398c0.302-0.004,0.568-0.044,0.8-0.12
		c0.231-0.077,0.425-0.178,0.581-0.305c0.157-0.127,0.275-0.273,0.355-0.439c0.08-0.166,0.12-0.344,0.12-0.534h1.671
		c0,0.362-0.076,0.71-0.229,1.046s-0.383,0.632-0.69,0.892s-0.694,0.466-1.16,0.621s-1.01,0.232-1.633,0.232H102.966z"/>
	<path fill="#FFFFFF" d="M108.938,18.483c0.104-0.5,0.266-0.952,0.486-1.359c0.22-0.406,0.502-0.752,0.847-1.04
		c0.345-0.287,0.754-0.509,1.23-0.666c0.475-0.157,1.022-0.235,1.641-0.235c0.522,0,0.991,0.058,1.406,0.173
		c0.416,0.116,0.782,0.279,1.099,0.489s0.588,0.465,0.813,0.763s0.409,0.63,0.551,0.995s0.245,0.76,0.311,1.186
		c0.065,0.425,0.098,0.87,0.098,1.336c0,0.437-0.033,0.859-0.098,1.27c-0.065,0.41-0.17,0.796-0.313,1.157s-0.328,0.692-0.553,0.992
		c-0.226,0.3-0.496,0.559-0.811,0.777s-0.678,0.387-1.09,0.506c-0.412,0.119-0.875,0.179-1.39,0.179
		c-0.518,0-0.983-0.06-1.395-0.179c-0.412-0.119-0.775-0.286-1.09-0.5c-0.315-0.214-0.584-0.471-0.808-0.771
		c-0.224-0.3-0.406-0.631-0.548-0.992c-0.142-0.362-0.245-0.749-0.311-1.16c-0.065-0.412-0.096-0.838-0.092-1.278
		c0-0.033-0.001-0.087-0.002-0.162c-0.002-0.074-0.003-0.151-0.003-0.229v-0.291h4.238l-0.011,1.487h-2.287
		c0.015,0.373,0.082,0.712,0.201,1.018c0.12,0.306,0.28,0.567,0.481,0.786s0.439,0.388,0.713,0.509s0.573,0.182,0.897,0.182
		c0.361,0,0.687-0.073,0.976-0.218c0.289-0.146,0.534-0.359,0.735-0.64c0.201-0.282,0.357-0.627,0.467-1.038
		c0.11-0.41,0.167-0.877,0.17-1.403c0-1.077-0.195-1.9-0.584-2.468c-0.389-0.568-0.979-0.853-1.77-0.853
		c-0.298,0-0.573,0.036-0.825,0.109c-0.251,0.073-0.474,0.181-0.668,0.324s-0.352,0.32-0.475,0.528
		c-0.123,0.209-0.205,0.447-0.246,0.716H108.938z"/>
	<path fill="#FFFFFF" d="M118.778,24.801v-9.387h1.901l-0.017,5.104c0.003,0.395,0.061,0.762,0.17,1.102
		c0.11,0.339,0.273,0.633,0.489,0.88c0.216,0.248,0.488,0.442,0.816,0.582c0.328,0.14,0.712,0.209,1.151,0.209
		c0.269,0,0.512-0.041,0.73-0.123c0.218-0.082,0.403-0.198,0.556-0.349s0.27-0.333,0.352-0.545s0.121-0.447,0.118-0.704v-6.156
		h1.884v5.977c0,0.537-0.055,1.029-0.165,1.476s-0.297,0.831-0.562,1.152s-0.617,0.569-1.057,0.747
		c-0.44,0.177-0.99,0.265-1.649,0.265c-0.645,0-1.201-0.116-1.669-0.349s-0.871-0.575-1.21-1.026v1.146H118.778z"/>
	<path fill="#FFFFFF" d="M121.031,25.88h2.611l-0.011,1.28c-0.004,0.298,0.058,0.525,0.185,0.682
		c0.126,0.157,0.322,0.235,0.587,0.235c0.253,0,0.446-0.078,0.579-0.235s0.202-0.384,0.21-0.682l0.005-1.28h1.761l-0.005,1.28
		c-0.004,0.324-0.051,0.631-0.14,0.92c-0.089,0.289-0.233,0.541-0.43,0.757c-0.198,0.216-0.457,0.388-0.777,0.515
		c-0.32,0.126-0.716,0.19-1.186,0.19c-0.443,0-0.824-0.053-1.14-0.159c-0.317-0.106-0.579-0.257-0.786-0.453
		c-0.207-0.196-0.364-0.43-0.47-0.702c-0.106-0.272-0.168-0.574-0.188-0.906h-0.827L121.031,25.88z"/>
	<path fill="#FFFFFF" d="M134.69,20.496c-0.123-0.015-0.279-0.026-0.47-0.034c-0.19-0.007-0.4-0.007-0.629,0
		c-0.229,0.008-0.47,0.024-0.721,0.05c-0.251,0.026-0.499,0.067-0.741,0.123c-0.243,0.056-0.475,0.128-0.696,0.215
		c-0.222,0.088-0.416,0.195-0.582,0.322c-0.166,0.126-0.297,0.276-0.394,0.447c-0.097,0.171-0.144,0.369-0.14,0.592
		c0,0.235,0.049,0.432,0.148,0.59c0.099,0.159,0.229,0.285,0.392,0.38s0.345,0.163,0.548,0.204s0.409,0.062,0.618,0.062
		c0.171,0,0.35-0.015,0.534-0.045c0.185-0.03,0.375-0.067,0.573-0.112v1.487c-0.261,0.067-0.507,0.122-0.738,0.165
		c-0.231,0.043-0.474,0.064-0.727,0.064c-0.44,0-0.858-0.049-1.255-0.146s-0.746-0.252-1.046-0.467
		c-0.3-0.214-0.538-0.493-0.713-0.836c-0.175-0.343-0.261-0.76-0.257-1.252c-0.004-0.514,0.087-0.955,0.274-1.322
		c0.186-0.367,0.439-0.676,0.757-0.925c0.319-0.25,0.689-0.446,1.11-0.59c0.421-0.144,0.866-0.25,1.333-0.321
		s0.944-0.11,1.429-0.118c0.484-0.007,0.949,0,1.392,0.022v-0.872c0-0.302-0.056-0.544-0.167-0.727s-0.257-0.321-0.437-0.417
		c-0.179-0.095-0.38-0.157-0.604-0.188c-0.224-0.03-0.447-0.044-0.671-0.044c-0.298,0-0.574,0.03-0.828,0.089
		s-0.474,0.159-0.66,0.299c-0.187,0.14-0.336,0.323-0.45,0.55c-0.114,0.228-0.18,0.511-0.198,0.85h-1.923
		c0.011-0.421,0.07-0.797,0.176-1.126c0.106-0.33,0.252-0.619,0.439-0.867s0.407-0.459,0.663-0.635s0.536-0.317,0.841-0.425
		s0.631-0.188,0.976-0.238s0.7-0.075,1.065-0.075c0.291,0,0.583,0.018,0.877,0.053c0.294,0.035,0.578,0.095,0.85,0.179
		s0.527,0.195,0.766,0.333c0.238,0.138,0.445,0.311,0.621,0.517c0.175,0.207,0.313,0.452,0.414,0.735s0.151,0.609,0.151,0.979v6.776
		h-1.901V20.496z"/>
	<path fill="#FFFFFF" d="M138.52,24.801v-9.387h1.901v9.387H138.52z"/>
	<path fill="#FFFFFF" d="M148.735,15.414l1.459,6.665l1.359-6.665h2.058l-2.376,9.387h-2.063l-1.532-6.665l-1.42,6.665h-2.085
		l-2.382-9.387h2.08l1.364,6.731l1.454-6.731H148.735z"/>
	<path fill="#FFFFFF" d="M143.127,12.5h5.703l-0.011-1.325h1.694l0.011,1.325h0.822l-0.011-1.325h1.694l0.011,2.818h-10.668
		L143.127,12.5z"/>
	<path fill="#FFFFFF" d="M151.262,7.374h1.745l0.005,2.745h-1.739L151.262,7.374z"/>
	<path fill="#FFFFFF" d="M154.466,18.483c0.104-0.5,0.266-0.952,0.486-1.359c0.22-0.406,0.502-0.752,0.847-1.04
		c0.345-0.287,0.754-0.509,1.23-0.666c0.475-0.157,1.022-0.235,1.641-0.235c0.522,0,0.991,0.058,1.406,0.173
		c0.416,0.116,0.782,0.279,1.099,0.489s0.588,0.465,0.813,0.763s0.409,0.63,0.551,0.995s0.245,0.76,0.311,1.186
		c0.065,0.425,0.098,0.87,0.098,1.336c0,0.437-0.033,0.859-0.098,1.27c-0.065,0.41-0.17,0.796-0.313,1.157s-0.328,0.692-0.553,0.992
		c-0.226,0.3-0.496,0.559-0.811,0.777s-0.678,0.387-1.09,0.506c-0.412,0.119-0.875,0.179-1.39,0.179
		c-0.518,0-0.983-0.06-1.395-0.179c-0.412-0.119-0.775-0.286-1.09-0.5c-0.315-0.214-0.584-0.471-0.808-0.771
		c-0.224-0.3-0.406-0.631-0.548-0.992c-0.142-0.362-0.245-0.749-0.311-1.16c-0.065-0.412-0.096-0.838-0.092-1.278
		c0-0.033-0.001-0.087-0.002-0.162c-0.002-0.074-0.003-0.151-0.003-0.229v-0.291h4.238l-0.011,1.487h-2.287
		c0.015,0.373,0.082,0.712,0.201,1.018c0.12,0.306,0.28,0.567,0.481,0.786s0.439,0.388,0.713,0.509s0.573,0.182,0.897,0.182
		c0.361,0,0.687-0.073,0.976-0.218c0.289-0.146,0.534-0.359,0.735-0.64c0.201-0.282,0.357-0.627,0.467-1.038
		c0.11-0.41,0.167-0.877,0.17-1.403c0-1.077-0.195-1.9-0.584-2.468c-0.389-0.568-0.979-0.853-1.77-0.853
		c-0.298,0-0.573,0.036-0.825,0.109c-0.251,0.073-0.474,0.181-0.668,0.324s-0.352,0.32-0.475,0.528
		c-0.123,0.209-0.205,0.447-0.246,0.716H154.466z"/>
	<path fill="#FFFFFF" d="M164.49,24.801v-9.387h1.901v9.387H164.49z"/>
	<path fill="#FFFFFF" d="M172.379,23.336c0.425,0,0.777-0.07,1.057-0.209c0.28-0.14,0.503-0.321,0.671-0.542
		c0.167-0.222,0.286-0.471,0.355-0.747c0.069-0.276,0.103-0.548,0.103-0.816V11.31h1.896v9.578c0,0.35-0.026,0.695-0.078,1.034
		s-0.139,0.662-0.26,0.967s-0.282,0.588-0.483,0.847c-0.201,0.259-0.452,0.482-0.752,0.671c-0.3,0.188-0.656,0.335-1.068,0.441
		c-0.412,0.106-0.888,0.16-1.429,0.16c-0.544,0-1.024-0.054-1.439-0.162c-0.416-0.108-0.774-0.258-1.076-0.45
		c-0.302-0.192-0.554-0.419-0.755-0.682c-0.202-0.263-0.363-0.549-0.484-0.858c-0.121-0.309-0.208-0.635-0.26-0.979
		c-0.052-0.343-0.079-0.689-0.079-1.04l0.017-5.423h1.878v5.607c0,0.269,0.035,0.541,0.104,0.816s0.188,0.525,0.355,0.747
		c0.168,0.222,0.392,0.402,0.671,0.542C171.602,23.266,171.954,23.336,172.379,23.336z"/>
	<path fill="#FFFFFF" d="M167.168,13.993l0.732-1.493h5.798l-0.006,1.493H167.168z"/>
	<path fill="#FFFFFF" d="M181.655,20.563h-0.732l-0.006-1.443h2.84l0.006,1.331l-3.769,4.35h-1.789v-5.613
		c0-0.335,0.026-0.667,0.078-0.993s0.141-0.637,0.266-0.934s0.291-0.569,0.498-0.819c0.207-0.25,0.464-0.467,0.771-0.651
		c0.308-0.185,0.672-0.328,1.093-0.431c0.421-0.103,0.909-0.154,1.465-0.154c0.544,0,1.026,0.051,1.445,0.154
		s0.783,0.246,1.09,0.431c0.307,0.184,0.565,0.401,0.774,0.651c0.208,0.25,0.377,0.523,0.506,0.819s0.22,0.607,0.274,0.934
		s0.081,0.657,0.081,0.993v5.613h-1.901l-0.006-5.792c0-0.257-0.033-0.517-0.098-0.78c-0.065-0.263-0.183-0.5-0.352-0.71
		c-0.17-0.21-0.401-0.382-0.693-0.515c-0.293-0.132-0.668-0.198-1.127-0.198c-0.466,0-0.847,0.066-1.143,0.198
		s-0.531,0.304-0.705,0.515s-0.292,0.447-0.358,0.71c-0.065,0.263-0.098,0.523-0.098,0.78v3.344L181.655,20.563z"/>
	<path fill="#FFFFFF" d="M192.356,23.336c0.425,0,0.777-0.07,1.057-0.209c0.28-0.14,0.503-0.321,0.671-0.542
		c0.168-0.222,0.286-0.471,0.355-0.747c0.069-0.276,0.103-0.548,0.103-0.816v-5.607h1.896v5.474
		c-0.004,0.35-0.031,0.695-0.081,1.034s-0.136,0.662-0.257,0.967s-0.282,0.588-0.483,0.847c-0.201,0.259-0.452,0.482-0.752,0.671
		c-0.3,0.188-0.656,0.335-1.068,0.441c-0.412,0.106-0.888,0.16-1.429,0.16c-0.544,0-1.024-0.054-1.439-0.162
		c-0.416-0.108-0.774-0.258-1.077-0.45c-0.302-0.192-0.553-0.419-0.754-0.682c-0.202-0.263-0.363-0.549-0.484-0.858
		c-0.121-0.309-0.208-0.635-0.26-0.979c-0.052-0.343-0.079-0.689-0.079-1.04v-5.423h1.896v5.607c0,0.269,0.035,0.541,0.104,0.816
		s0.188,0.525,0.355,0.747c0.168,0.222,0.392,0.402,0.671,0.542C191.579,23.266,191.931,23.336,192.356,23.336z"/>
	<path fill="#FFFFFF" d="M191.411,13.971v-2.248h1.739l-0.011,0.805h4.484l0.011,1.442H191.411z"/>
	<path fill="#FFFFFF" d="M205.523,24.801c0.056,0.205,0.145,0.386,0.266,0.542c0.121,0.156,0.26,0.288,0.417,0.394
		c0.157,0.106,0.324,0.187,0.503,0.24c0.179,0.054,0.354,0.081,0.525,0.081c0.41,0,0.754-0.071,1.032-0.212
		c0.277-0.142,0.5-0.325,0.665-0.551c0.166-0.226,0.283-0.477,0.35-0.754c0.067-0.278,0.097-0.551,0.089-0.819l0.011-0.593
		c-0.13,0.168-0.281,0.327-0.453,0.478c-0.172,0.151-0.358,0.285-0.559,0.4c-0.202,0.116-0.416,0.208-0.643,0.277
		c-0.228,0.069-0.464,0.104-0.71,0.104c-0.574,0-1.053-0.08-1.437-0.241c-0.384-0.16-0.691-0.394-0.923-0.702
		c-0.231-0.308-0.395-0.686-0.492-1.135c-0.097-0.449-0.144-0.962-0.14-1.541l-0.006-1.649c0-0.268-0.037-0.535-0.112-0.799
		s-0.198-0.503-0.372-0.716s-0.404-0.385-0.691-0.517c-0.287-0.132-0.643-0.202-1.068-0.209c-0.339-0.004-0.639,0.033-0.9,0.109
		c-0.261,0.076-0.484,0.179-0.668,0.308c-0.185,0.128-0.332,0.275-0.442,0.439s-0.184,0.328-0.221,0.492
		c0.231,0.164,0.398,0.395,0.503,0.693s0.157,0.634,0.157,1.006v3.344h1.006l0.005,1.532h-2.896v-4.903
		c0-0.13-0.011-0.265-0.034-0.403c-0.022-0.138-0.062-0.271-0.117-0.399c-0.056-0.129-0.134-0.252-0.235-0.369
		s-0.229-0.223-0.386-0.316c0.056-0.257,0.139-0.515,0.249-0.774c0.11-0.259,0.251-0.508,0.422-0.746
		c0.171-0.239,0.373-0.46,0.604-0.666c0.231-0.205,0.495-0.383,0.791-0.534c0.296-0.151,0.624-0.269,0.984-0.355
		c0.36-0.085,0.756-0.128,1.188-0.128c0.526,0,0.994,0.052,1.403,0.157c0.41,0.104,0.768,0.25,1.074,0.436
		c0.306,0.186,0.564,0.408,0.777,0.665c0.212,0.257,0.384,0.538,0.514,0.842s0.226,0.625,0.285,0.964s0.091,0.684,0.095,1.034
		l-0.017,1.649c0,0.321,0.03,0.59,0.089,0.808c0.06,0.218,0.146,0.394,0.26,0.528s0.25,0.231,0.411,0.291
		c0.16,0.06,0.341,0.089,0.542,0.089c0.339,0,0.64-0.072,0.903-0.215c0.263-0.144,0.484-0.339,0.663-0.587
		c0.179-0.248,0.315-0.541,0.408-0.878c0.093-0.337,0.14-0.702,0.14-1.093v-4.484h1.913l-0.006,7.648
		c0,0.705-0.081,1.336-0.243,1.896s-0.406,1.034-0.732,1.425c-0.326,0.392-0.739,0.691-1.238,0.9
		c-0.5,0.208-1.088,0.313-1.767,0.313c-0.429,0-0.841-0.057-1.238-0.17s-0.753-0.285-1.068-0.514c-0.315-0.229-0.58-0.52-0.794-0.87
		c-0.214-0.351-0.355-0.764-0.422-1.241H205.523z"/>
	<path fill="#FFFFFF" d="M218.176,21.066c0-0.35-0.04-0.627-0.12-0.83c-0.081-0.203-0.195-0.358-0.344-0.464
		c-0.149-0.106-0.331-0.174-0.545-0.204c-0.214-0.03-0.456-0.048-0.724-0.056l-0.017-1.375c0.365,0,0.672-0.057,0.92-0.17
		c0.248-0.114,0.447-0.284,0.598-0.512s0.259-0.512,0.324-0.853c0.065-0.341,0.1-0.737,0.104-1.188h1.901
		c-0.004,0.343-0.03,0.684-0.078,1.023c-0.049,0.339-0.135,0.659-0.258,0.959c-0.123,0.3-0.289,0.569-0.498,0.808
		c-0.208,0.239-0.471,0.431-0.788,0.576c0.224,0.067,0.414,0.154,0.57,0.26c0.157,0.106,0.287,0.225,0.392,0.355
		c0.104,0.131,0.186,0.269,0.246,0.414c0.06,0.145,0.104,0.292,0.134,0.439c0.03,0.147,0.048,0.291,0.054,0.43
		c0.006,0.14,0.008,0.27,0.008,0.389l-0.006,0.76c0.004,0.366-0.039,0.699-0.129,1.001c-0.089,0.302-0.213,0.571-0.371,0.808
		c-0.158,0.236-0.348,0.442-0.567,0.618c-0.22,0.175-0.459,0.32-0.719,0.436c-0.259,0.116-0.533,0.201-0.822,0.257
		c-0.289,0.056-0.583,0.083-0.88,0.083c-0.458,0-0.901-0.068-1.328-0.204c-0.427-0.136-0.805-0.339-1.135-0.61
		c-0.33-0.27-0.596-0.604-0.797-1.003s-0.304-0.861-0.308-1.387l0.006-0.76c0-0.238,0.007-0.447,0.022-0.626
		c0.015-0.179,0.036-0.338,0.064-0.478c0.028-0.14,0.066-0.267,0.115-0.38s0.107-0.225,0.176-0.333
		c0.069-0.108,0.15-0.219,0.243-0.333c0.093-0.113,0.201-0.243,0.324-0.388c0.089-0.116,0.17-0.221,0.243-0.316
		c0.073-0.095,0.135-0.186,0.188-0.271c0.052-0.085,0.095-0.172,0.128-0.26s0.058-0.18,0.073-0.277
		c0.015-0.093,0.012-0.179-0.008-0.257c-0.021-0.078-0.056-0.146-0.106-0.204c-0.05-0.058-0.112-0.103-0.185-0.134
		c-0.073-0.031-0.156-0.047-0.249-0.047c-0.104,0-0.207,0.008-0.308,0.022c-0.101,0.015-0.211,0.038-0.33,0.07
		s-0.252,0.073-0.399,0.123c-0.147,0.05-0.316,0.109-0.506,0.176l0.011-1.465c0.19-0.067,0.376-0.127,0.559-0.179
		s0.353-0.096,0.509-0.131c0.157-0.035,0.297-0.062,0.422-0.078c0.125-0.017,0.225-0.025,0.299-0.025
		c0.354,0,0.676,0.042,0.965,0.126c0.289,0.084,0.532,0.211,0.729,0.383c0.197,0.172,0.342,0.386,0.433,0.643
		s0.117,0.561,0.076,0.912c-0.026,0.171-0.071,0.333-0.134,0.486s-0.146,0.312-0.246,0.478s-0.222,0.348-0.363,0.545
		c-0.142,0.198-0.304,0.427-0.486,0.688c-0.097,0.138-0.17,0.262-0.218,0.372s-0.084,0.218-0.106,0.324
		c-0.022,0.106-0.037,0.215-0.042,0.327c-0.006,0.112-0.014,0.237-0.025,0.375l0.017,0.615c0,0.291,0.043,0.549,0.131,0.774
		c0.087,0.226,0.208,0.416,0.36,0.57s0.333,0.271,0.54,0.349c0.207,0.079,0.428,0.118,0.663,0.118c0.224,0,0.433-0.029,0.626-0.087
		c0.193-0.058,0.362-0.153,0.506-0.285s0.256-0.305,0.338-0.517c0.082-0.212,0.121-0.473,0.117-0.783L218.176,21.066z"/>
	<path fill="#FFFFFF" d="M212.646,12.5h5.653l-0.006-1.325h1.784l0.011,2.818h-8.196L212.646,12.5z"/>
	<path fill="#FFFFFF" d="M225.097,23.269h0.984l0.012,1.532h-2.863l-0.006-8.862c-0.008-0.257,0-0.485,0.02-0.685
		c0.021-0.199,0.061-0.386,0.121-0.559c0.059-0.173,0.145-0.339,0.254-0.498c0.109-0.158,0.252-0.327,0.428-0.506
		c0.041-0.045,0.1-0.102,0.176-0.17c0.076-0.069,0.152-0.143,0.227-0.221c0.074-0.078,0.14-0.158,0.195-0.24
		c0.057-0.082,0.086-0.16,0.09-0.235c-0.004-0.067-0.018-0.135-0.042-0.204s-0.063-0.131-0.117-0.188
		c-0.054-0.056-0.127-0.101-0.218-0.134c-0.092-0.034-0.207-0.05-0.344-0.05c-0.149,0-0.281,0.033-0.395,0.101
		c-0.113,0.067-0.209,0.162-0.285,0.285s-0.135,0.272-0.174,0.447s-0.059,0.371-0.059,0.587h-1.756
		c-0.003-0.496,0.068-0.926,0.216-1.292s0.346-0.668,0.596-0.909c0.249-0.24,0.536-0.418,0.858-0.534
		c0.322-0.116,0.658-0.173,1.009-0.173c0.313,0,0.616,0.036,0.909,0.109c0.292,0.073,0.551,0.188,0.776,0.344
		c0.226,0.157,0.406,0.36,0.542,0.609c0.137,0.25,0.205,0.552,0.205,0.906c-0.008,0.198-0.043,0.37-0.107,0.518
		c-0.063,0.147-0.145,0.285-0.242,0.414c-0.1,0.128-0.209,0.255-0.33,0.38c-0.121,0.125-0.24,0.262-0.355,0.411
		c-0.082,0.097-0.145,0.207-0.189,0.33s-0.078,0.251-0.098,0.386c-0.021,0.134-0.032,0.268-0.034,0.399
		c-0.002,0.133-0.003,0.256-0.003,0.372V23.269z"/>
	<path fill="#FFFFFF" d="M229.375,15.414v3.293l3.836-3.293h2.745l-2.097,1.761c0.324,0.13,0.591,0.304,0.8,0.52
		c0.208,0.216,0.371,0.468,0.488,0.755c0.118,0.287,0.199,0.605,0.244,0.954c0.044,0.348,0.066,0.72,0.066,1.115v4.283h-1.878
		v-4.467c0-0.224-0.021-0.442-0.062-0.654s-0.106-0.406-0.196-0.582c-0.089-0.175-0.205-0.326-0.347-0.453
		c-0.142-0.126-0.312-0.212-0.509-0.257l-3.08,2.633l0.005,3.78h-1.878v-9.387H229.375z"/>
	<path fill="#FFFFFF" d="M237.196,24.801v-9.387h1.901l-0.017,5.104c0.004,0.395,0.061,0.762,0.17,1.102
		c0.11,0.339,0.273,0.633,0.489,0.88c0.217,0.248,0.488,0.442,0.816,0.582s0.712,0.209,1.152,0.209c0.269,0,0.512-0.041,0.729-0.123
		c0.218-0.082,0.403-0.198,0.557-0.349c0.152-0.151,0.27-0.333,0.352-0.545s0.121-0.447,0.117-0.704v-6.156h1.885v5.977
		c0,0.537-0.056,1.029-0.165,1.476c-0.11,0.447-0.297,0.831-0.562,1.152c-0.266,0.321-0.617,0.569-1.058,0.747
		c-0.439,0.177-0.989,0.265-1.648,0.265c-0.646,0-1.202-0.116-1.669-0.349c-0.469-0.233-0.872-0.575-1.211-1.026v1.146H237.196z"/>
	<path fill="#FFFFFF" d="M243.481,11.131h1.828l0.017,2.885h-1.812L243.481,11.131z"/>
</g>
</svg>
