<?xml version="1.0" encoding="utf-8"?>
<!-- Generator: Adobe Illustrator 22.0.0, SVG Export Plug-In . SVG Version: 6.00 Build 0)  -->
<svg version="1.1" id="Layer_1" xmlns="http://www.w3.org/2000/svg" xmlns:xlink="http://www.w3.org/1999/xlink" x="0px" y="0px"
	 viewBox="0 0 306.2 306.2" style="enable-background:new 0 0 306.2 306.2;" xml:space="preserve">
<style type="text/css">
	.st0{fill:#CFCFCF;}
	.st1{fill:#B0B0B0;}
	.st2{fill:#FFFFFF;}
</style>
<ellipse transform="matrix(0.1826 -0.9832 0.9832 0.1826 -25.3799 275.7027)" class="st0" cx="153.1" cy="153.1" rx="153.1" ry="153.1"/>
<path class="st1" d="M153.1,0v306.2c84.6,0,153.1-68.6,153.1-153.1C306.2,68.6,237.7,0,153.1,0z"/>
<path class="st2" d="M191.3,62.5H115c-7.3,0-13.2,5.9-13.2,13.2v154.9c0,7.3,5.9,13.2,13.2,13.2h76.3c7.3,0,13.2-5.9,13.2-13.2V75.7
	C204.4,68.4,198.5,62.5,191.3,62.5z M134.3,70.5H172c0.9,0,1.7,1.4,1.7,3.2c0,1.8-0.8,3.2-1.7,3.2h-37.7c-1,0-1.7-1.4-1.7-3.2
	C132.6,71.9,133.3,70.5,134.3,70.5z M153.1,230.7c-4.6,0-8.4-3.8-8.4-8.4c0-4.6,3.8-8.4,8.4-8.4c4.6,0,8.4,3.8,8.4,8.4
	C161.5,226.9,157.8,230.7,153.1,230.7z M194.6,201.9h-82.9V84.8h82.9V201.9z"/>
</svg>
