<?xml version="1.0" encoding="utf-8"?>
<!-- Generator: Adobe Illustrator 22.0.0, SVG Export Plug-In . SVG Version: 6.00 Build 0)  -->
<svg version="1.1" id="Layer_1" xmlns="http://www.w3.org/2000/svg" xmlns:xlink="http://www.w3.org/1999/xlink" x="0px" y="0px"
	 viewBox="0 0 306.2 306.2" style="enable-background:new 0 0 306.2 306.2;" xml:space="preserve">
<style type="text/css">
	.st0{fill:#CFCFCF;}
	.st1{fill:#B0B0B0;}
	.st2{fill:#FFFFFF;}
</style>
<ellipse transform="matrix(0.1068 -0.9943 0.9943 0.1068 -15.4807 288.9948)" class="st0" cx="153.1" cy="153.1" rx="153.1" ry="153.1"/>
<path class="st1" d="M153.1,0v306.2c84.6,0,153.1-68.6,153.1-153.1S237.7,0,153.1,0z"/>
<path class="st2" d="M220.1,216.3c3.7,0,6.8-1.2,9.5-3.6l-46.2-46.2c-1.1,0.8-2.2,1.6-3.2,2.3c-3.5,2.5-6.3,4.5-8.4,6
	c-2.2,1.4-5,2.9-8.6,4.4c-3.6,1.5-6.9,2.2-10,2.2h-0.1H153c-3.1,0-6.4-0.7-10-2.2c-3.6-1.5-6.4-2.9-8.6-4.4c-2.2-1.4-5-3.4-8.4-6
	c-1-0.7-2-1.5-3.2-2.3l-46.2,46.2c2.7,2.4,5.9,3.6,9.5,3.6H220.1z"/>
<path class="st2" d="M82.6,137.3c-3.5-2.3-6.5-4.9-9.2-7.9v70.3l40.7-40.7C106,153.3,95.5,146.1,82.6,137.3z"/>
<path class="st2" d="M223.7,137.3c-12.4,8.4-22.9,15.6-31.6,21.7l40.7,40.7v-70.3C230.2,132.3,227.2,135,223.7,137.3z"/>
<path class="st2" d="M220.1,90h-134c-4.7,0-8.3,1.6-10.8,4.7c-2.5,3.2-3.8,7.1-3.8,11.8c0,3.8,1.7,8,5,12.4c3.3,4.5,6.9,8,10.7,10.5
	c2.1,1.5,8.3,5.8,18.7,13c5.6,3.9,10.5,7.3,14.7,10.2c3.6,2.5,6.6,4.6,9.2,6.4c0.3,0.2,0.7,0.5,1.4,1c0.7,0.5,1.5,1.1,2.5,1.8
	c2,1.4,3.6,2.6,4.9,3.5c1.3,0.9,2.9,1.9,4.7,3c1.9,1.1,3.6,1.9,5.2,2.5c1.6,0.5,3.2,0.8,4.6,0.8h0.1h0.1c1.4,0,2.9-0.3,4.6-0.8
	c1.6-0.5,3.4-1.4,5.2-2.5c1.9-1.1,3.4-2.1,4.7-3c1.3-0.9,2.9-2,4.9-3.5c1-0.7,1.9-1.3,2.5-1.8c0.6-0.4,1.1-0.8,1.4-1
	c2-1.4,5.1-3.5,9.2-6.4c7.5-5.2,18.7-13,33.4-23.2c4.4-3.1,8.1-6.8,11.1-11.2c3-4.4,4.5-9,4.5-13.7c0-4-1.4-7.4-4.3-10.3
	C227.5,91.4,224.1,90,220.1,90z"/>
</svg>
