<?xml version="1.0" encoding="utf-8"?>
<!-- Generator: Adobe Illustrator 22.0.0, SVG Export Plug-In . SVG Version: 6.00 Build 0)  -->
<svg version="1.1" id="Layer_1" xmlns="http://www.w3.org/2000/svg" xmlns:xlink="http://www.w3.org/1999/xlink" x="0px" y="0px"
	 viewBox="0 0 64 64" style="enable-background:new 0 0 64 64;" xml:space="preserve">
<style type="text/css">
	.st0{fill:#002661;}
</style>
<path class="st0" d="M32,0C14.3,0,0,14.3,0,32c0,17.7,14.3,32,32,32c17.7,0,32-14.3,32-32C64,14.3,49.7,0,32,0z M32,56
	C32,56,32,56,32,56l-0.1,0c-7,0-15.2-3-19.6-7.8c1.7-0.9,5.6-1.7,7.8-2.6c4-1.7,5.3-4.5,5.7-6.8c-2.4-2.1-4.3-5.1-5.5-8.4
	c-1.7-1.8-2.7-3.8-2.7-5.4c0-1.2,0.5-1.9,1.4-2.5C19.4,14.4,25.1,8,32.1,8c0,0,0,0,0.1,0c0.1,0,0.1,0,0.2,0
	c7.1,0.1,12.8,6.6,13,14.7c0.6,0.5,1,1.2,1,2.2c0,1.4-0.7,3-2,4.6c-1.2,3.8-3.4,7.4-6.1,9.6c0.4,2.2,1.8,4.8,5.6,6.5
	c2.2,0.9,6.1,1.8,7.8,2.6C47.3,53,39,56,32,56z"/>
<g id="Layer_2">
</g>
</svg>
