<?xml version="1.0" encoding="utf-8"?>
<!-- Generator: Adobe Illustrator 16.0.0, SVG Export Plug-In . SVG Version: 6.00 Build 0)  -->
<!DOCTYPE svg PUBLIC "-//W3C//DTD SVG 1.1//EN" "http://www.w3.org/Graphics/SVG/1.1/DTD/svg11.dtd">
<svg version="1.1" id="Layer_1" xmlns="http://www.w3.org/2000/svg" xmlns:xlink="http://www.w3.org/1999/xlink" x="0px" y="0px"
	 width="334.667px" height="40px" viewBox="0 0 334.667 40" enable-background="new 0 0 334.667 40" xml:space="preserve">
<g>
	<g>
		<path fill="#FFFFFF" d="M8,39c-3.86,0-7-3.141-7-7V8c0-3.859,3.14-7,7-7h318.667c3.858,0,7,3.141,7,7v24c0,3.859-3.142,7-7,7H8z"
			/>
		<path fill="#002561" d="M326.665,2c3.31,0,6,2.691,6,6v24c0,3.309-2.69,6-6,6H8c-3.31,0-6-2.691-6-6V8c0-3.309,2.69-6,6-6H326.665
			 M326.665,0H8C3.582,0,0,3.582,0,8v24c0,4.418,3.582,8,8,8h318.667c4.418,0,8-3.582,8-8V8C334.665,3.582,331.084,0,326.665,0
			L326.665,0z"/>
	</g>
	<g>
		<g>
			<path fill="#002561" d="M51.518,16.016h2.311v0.982h-1.04v4.411c0,0.549,0.07,0.949,0.212,1.2
				c0.141,0.25,0.346,0.376,0.616,0.376c0.207,0,0.365-0.05,0.477-0.147c0.111-0.1,0.193-0.234,0.245-0.406
				c0.052-0.174,0.083-0.375,0.092-0.607c0.009-0.23,0.014-0.479,0.014-0.742v-1.139h1.293v1.139c0,0.264,0.007,0.512,0.02,0.742
				c0.013,0.232,0.048,0.436,0.105,0.607c0.059,0.172,0.146,0.308,0.264,0.406c0.118,0.1,0.283,0.147,0.497,0.147
				c0.26,0,0.454-0.126,0.581-0.376c0.127-0.251,0.19-0.651,0.19-1.2v-5.394h1.271v5.719c0,0.4-0.044,0.748-0.132,1.04
				c-0.088,0.29-0.213,0.532-0.374,0.727c-0.162,0.192-0.356,0.335-0.583,0.427c-0.228,0.094-0.48,0.141-0.76,0.141
				c-0.417,0-0.776-0.102-1.08-0.305c-0.303-0.201-0.525-0.492-0.67-0.871c-0.12,0.379-0.314,0.67-0.588,0.871
				c-0.272,0.203-0.625,0.305-1.054,0.305c-0.289,0-0.55-0.047-0.783-0.141c-0.233-0.092-0.434-0.233-0.6-0.427
				c-0.167-0.192-0.295-0.437-0.387-0.727c-0.091-0.292-0.137-0.64-0.137-1.04V16.016z"/>
			<path fill="#002561" d="M53.944,24.952h1.925v0.944c0,0.302,0.063,0.527,0.189,0.679c0.127,0.149,0.327,0.226,0.601,0.226
				c0.526,0,0.79-0.301,0.79-0.902v-0.945h1.214v0.945c0,0.254-0.035,0.494-0.104,0.723c-0.068,0.229-0.182,0.426-0.341,0.596
				c-0.158,0.168-0.365,0.303-0.621,0.401s-0.568,0.147-0.938,0.147c-0.367,0-0.679-0.045-0.935-0.135
				c-0.255-0.089-0.464-0.216-0.625-0.381c-0.161-0.164-0.279-0.361-0.353-0.59c-0.074-0.229-0.11-0.482-0.11-0.764h-0.691
				L53.944,24.952L53.944,24.952z"/>
			<path fill="#002561" d="M55.097,14.666V13.49h-0.672v-0.945h1.754v1.176c0.283,0,0.536-0.029,0.76-0.092
				c0.225-0.062,0.414-0.145,0.569-0.248c0.155-0.105,0.274-0.229,0.357-0.373c0.083-0.143,0.125-0.297,0.125-0.463h1.176
				c0,0.275-0.063,0.542-0.187,0.797c-0.124,0.256-0.311,0.481-0.562,0.678c-0.251,0.195-0.565,0.354-0.943,0.471
				c-0.378,0.118-0.822,0.177-1.333,0.177L55.097,14.666L55.097,14.666z"/>
			<path fill="#002561" d="M61.418,16.016v1.25h0.019c0.539-0.961,1.4-1.442,2.582-1.442c0.53,0,0.97,0.071,1.319,0.214
				c0.349,0.143,0.629,0.341,0.84,0.596c0.21,0.254,0.358,0.559,0.444,0.912c0.086,0.354,0.129,0.743,0.129,1.166v5.202h-1.288
				v-5.339c0-0.244-0.038-0.466-0.112-0.663c-0.076-0.196-0.183-0.364-0.323-0.503c-0.14-0.139-0.309-0.244-0.508-0.32
				c-0.199-0.074-0.424-0.111-0.675-0.111c-0.395,0-0.741,0.063-1.037,0.188s-0.543,0.298-0.741,0.52
				c-0.197,0.222-0.346,0.481-0.444,0.783c-0.1,0.301-0.148,0.627-0.148,0.979v4.469h-1.27v-7.896h1.214V16.016z"/>
			<path fill="#002561" d="M60.704,13.701h4.815v-1.213h1.232v2.195h-6.547L60.704,13.701z"/>
			<path fill="#002561" d="M65.52,9.52h1.232v2.084H65.52V9.52z"/>
			<path fill="#002561" d="M71.338,16.938c-0.245-0.004-0.467,0.018-0.668,0.063s-0.381,0.105-0.543,0.181
				c-0.162,0.074-0.302,0.162-0.423,0.26c-0.121,0.097-0.223,0.197-0.306,0.301s-0.146,0.204-0.192,0.303
				c-0.046,0.1-0.073,0.188-0.083,0.262c0.091,0.054,0.172,0.125,0.245,0.215c0.072,0.09,0.132,0.191,0.181,0.311
				c0.048,0.117,0.086,0.246,0.112,0.387c0.026,0.14,0.041,0.285,0.041,0.439v4.256h-1.271v-4.275c0-0.121-0.009-0.246-0.025-0.369
				c-0.018-0.123-0.05-0.243-0.098-0.361c-0.047-0.118-0.112-0.229-0.195-0.329c-0.082-0.101-0.189-0.192-0.321-0.271
				c0.068-0.299,0.187-0.594,0.353-0.891c0.166-0.294,0.393-0.559,0.679-0.792c0.284-0.233,0.634-0.423,1.048-0.567
				c0.414-0.144,0.902-0.215,1.468-0.215c0.445,0,0.841,0.043,1.188,0.127c0.348,0.084,0.65,0.201,0.911,0.351
				c0.261,0.147,0.479,0.327,0.658,0.532c0.179,0.209,0.324,0.434,0.437,0.676c0.11,0.244,0.19,0.502,0.239,0.773
				c0.049,0.272,0.073,0.551,0.073,0.834v4.777h-1.289v-4.936c0-0.243-0.037-0.486-0.11-0.729c-0.073-0.24-0.196-0.458-0.368-0.65
				c-0.173-0.192-0.401-0.351-0.686-0.472C72.107,17.008,71.755,16.944,71.338,16.938z"/>
			<path fill="#002561" d="M77.331,21.368c0,0.288,0.045,0.534,0.137,0.738c0.091,0.204,0.214,0.37,0.369,0.499
				s0.336,0.224,0.543,0.283c0.207,0.063,0.428,0.093,0.664,0.093c0.172,0,0.353-0.021,0.541-0.063
				c0.188-0.04,0.359-0.108,0.515-0.206s0.284-0.226,0.386-0.384c0.103-0.157,0.153-0.353,0.153-0.586
				c0-0.216-0.045-0.399-0.136-0.55c-0.091-0.151-0.216-0.277-0.374-0.385c-0.158-0.104-0.345-0.192-0.561-0.266
				c-0.214-0.07-0.443-0.138-0.688-0.197c-0.201-0.049-0.406-0.106-0.614-0.17c-0.209-0.064-0.41-0.142-0.602-0.229
				c-0.193-0.088-0.374-0.188-0.543-0.306s-0.318-0.252-0.444-0.404c-0.127-0.153-0.227-0.328-0.299-0.521
				c-0.072-0.195-0.108-0.416-0.108-0.664c0-0.254,0.036-0.484,0.106-0.692c0.071-0.209,0.167-0.396,0.292-0.556
				c0.124-0.162,0.27-0.303,0.438-0.422s0.35-0.218,0.543-0.297c0.194-0.078,0.396-0.136,0.604-0.174
				c0.208-0.037,0.417-0.056,0.628-0.056c0.382,0,0.745,0.046,1.088,0.138c0.344,0.094,0.646,0.241,0.903,0.441
				c0.259,0.203,0.464,0.464,0.615,0.785c0.152,0.318,0.229,0.707,0.233,1.16h-1.289c0-0.22-0.035-0.42-0.104-0.603
				c-0.071-0.183-0.171-0.337-0.302-0.468c-0.13-0.131-0.284-0.23-0.466-0.305c-0.18-0.07-0.378-0.107-0.595-0.107
				c-0.194,0-0.377,0.023-0.55,0.07s-0.323,0.117-0.452,0.213c-0.128,0.094-0.229,0.211-0.303,0.354
				c-0.074,0.145-0.111,0.309-0.111,0.497c0,0.194,0.047,0.358,0.142,0.491s0.222,0.247,0.381,0.34
				c0.16,0.095,0.346,0.173,0.556,0.236c0.21,0.063,0.432,0.121,0.664,0.178c0.417,0.104,0.789,0.215,1.117,0.332
				c0.327,0.117,0.604,0.264,0.827,0.436c0.225,0.174,0.396,0.381,0.514,0.625c0.117,0.245,0.176,0.543,0.176,0.896
				c0,0.321-0.04,0.608-0.12,0.86c-0.08,0.25-0.188,0.469-0.327,0.652c-0.138,0.186-0.302,0.342-0.492,0.469
				c-0.188,0.127-0.393,0.229-0.611,0.309c-0.219,0.078-0.446,0.134-0.687,0.167c-0.239,0.032-0.479,0.05-0.718,0.05
				c-0.263,0-0.519-0.021-0.767-0.064c-0.248-0.045-0.48-0.113-0.698-0.209c-0.218-0.093-0.418-0.213-0.601-0.356
				c-0.182-0.146-0.338-0.316-0.468-0.519c-0.13-0.199-0.23-0.429-0.304-0.687c-0.072-0.257-0.108-0.547-0.108-0.87h1.306V21.368z"
				/>
			<path fill="#002561" d="M82.918,18.461c0.076-0.389,0.201-0.744,0.377-1.068c0.175-0.325,0.401-0.604,0.679-0.836
				c0.278-0.231,0.608-0.412,0.993-0.539c0.384-0.131,0.824-0.193,1.319-0.193c0.63,0,1.165,0.105,1.604,0.318
				c0.439,0.214,0.795,0.508,1.07,0.881c0.273,0.373,0.472,0.813,0.595,1.318c0.122,0.506,0.184,1.053,0.184,1.641
				c0,0.365-0.027,0.722-0.083,1.066c-0.055,0.346-0.141,0.67-0.257,0.975c-0.115,0.304-0.265,0.582-0.445,0.835
				c-0.183,0.252-0.4,0.47-0.654,0.653s-0.546,0.326-0.877,0.426c-0.331,0.101-0.703,0.15-1.117,0.15
				c-0.417,0-0.792-0.051-1.122-0.15c-0.331-0.1-0.623-0.24-0.875-0.422c-0.253-0.181-0.468-0.396-0.646-0.648
				c-0.18-0.253-0.325-0.529-0.438-0.834s-0.196-0.63-0.25-0.977c-0.054-0.348-0.08-0.705-0.08-1.074V19.54h3.41v0.982h-2.079
				c0,0.37,0.05,0.708,0.15,1.014c0.1,0.308,0.242,0.567,0.426,0.785c0.183,0.219,0.403,0.387,0.658,0.507
				c0.256,0.118,0.537,0.178,0.845,0.178c0.329,0,0.625-0.065,0.886-0.201c0.263-0.135,0.484-0.33,0.668-0.588
				c0.185-0.258,0.324-0.574,0.421-0.947c0.098-0.375,0.146-0.805,0.146-1.286c0-0.489-0.045-0.925-0.134-1.304
				s-0.224-0.697-0.402-0.955c-0.179-0.256-0.402-0.451-0.668-0.586c-0.267-0.133-0.579-0.199-0.936-0.199
				c-0.271,0-0.521,0.037-0.754,0.107c-0.231,0.072-0.436,0.176-0.61,0.307c-0.175,0.132-0.321,0.292-0.436,0.479
				c-0.114,0.188-0.188,0.398-0.224,0.631h-1.343V18.461z"/>
			<path fill="#002561" d="M94.009,16.938c-0.245-0.004-0.467,0.018-0.668,0.063c-0.2,0.046-0.381,0.105-0.543,0.181
				c-0.162,0.074-0.303,0.162-0.423,0.26c-0.121,0.097-0.224,0.197-0.307,0.301s-0.146,0.204-0.192,0.303
				c-0.045,0.1-0.073,0.188-0.083,0.262c0.091,0.054,0.173,0.125,0.245,0.215c0.071,0.09,0.133,0.191,0.181,0.311
				c0.049,0.117,0.086,0.246,0.113,0.387c0.026,0.14,0.04,0.285,0.04,0.439v4.256h-1.271v-4.275c0-0.121-0.009-0.246-0.025-0.369
				c-0.019-0.123-0.051-0.243-0.098-0.361s-0.111-0.229-0.194-0.329s-0.19-0.192-0.322-0.271c0.069-0.299,0.186-0.594,0.353-0.891
				c0.166-0.294,0.393-0.559,0.678-0.792c0.284-0.233,0.635-0.423,1.049-0.567c0.414-0.144,0.902-0.215,1.467-0.215
				c0.445,0,0.841,0.043,1.188,0.127s0.65,0.201,0.91,0.351c0.261,0.147,0.479,0.327,0.658,0.532
				c0.179,0.209,0.324,0.434,0.436,0.676c0.11,0.244,0.19,0.502,0.239,0.773c0.048,0.272,0.073,0.551,0.073,0.834v4.777h-1.289
				v-4.936c0-0.243-0.037-0.486-0.11-0.729c-0.072-0.242-0.196-0.458-0.368-0.65c-0.173-0.192-0.4-0.351-0.685-0.472
				C94.776,17.008,94.427,16.944,94.009,16.938z"/>
			<path fill="#002561" d="M101.021,23.913l-1.562-6.938h-1.002v-0.959h2.117l1.447,6.896l1.444-6.896h1.308l-1.768,7.896
				L101.021,23.913L101.021,23.913z"/>
			<path fill="#002561" d="M100.729,14.666V13.49h-0.672v-0.945h1.754v1.176c0.282,0,0.536-0.029,0.759-0.092
				c0.226-0.062,0.414-0.145,0.57-0.248c0.155-0.105,0.274-0.229,0.357-0.373c0.083-0.143,0.125-0.297,0.125-0.463h1.176
				c0,0.275-0.063,0.542-0.187,0.797c-0.123,0.256-0.311,0.481-0.562,0.678c-0.25,0.195-0.565,0.354-0.943,0.471
				c-0.378,0.118-0.822,0.177-1.333,0.177L100.729,14.666L100.729,14.666z"/>
			<path fill="#002561" d="M105.589,18.461c0.075-0.389,0.201-0.744,0.376-1.068c0.175-0.325,0.402-0.604,0.68-0.836
				s0.608-0.412,0.992-0.539c0.384-0.131,0.824-0.193,1.32-0.193c0.63,0,1.165,0.105,1.604,0.318
				c0.439,0.214,0.795,0.508,1.07,0.881c0.273,0.373,0.473,0.813,0.595,1.318s0.184,1.053,0.184,1.641
				c0,0.365-0.028,0.722-0.083,1.066c-0.056,0.346-0.142,0.67-0.257,0.975c-0.115,0.304-0.265,0.582-0.445,0.835
				c-0.183,0.252-0.4,0.47-0.654,0.653s-0.546,0.326-0.877,0.426c-0.331,0.101-0.703,0.15-1.117,0.15
				c-0.417,0-0.791-0.051-1.122-0.15s-0.622-0.24-0.875-0.422c-0.253-0.181-0.468-0.396-0.646-0.648s-0.325-0.529-0.438-0.834
				s-0.196-0.63-0.249-0.977c-0.053-0.348-0.08-0.705-0.08-1.074V19.54h3.41v0.982h-2.079c0,0.37,0.05,0.708,0.15,1.014
				c0.101,0.308,0.242,0.567,0.426,0.785c0.184,0.219,0.403,0.387,0.659,0.507c0.255,0.118,0.537,0.178,0.844,0.178
				c0.329,0,0.625-0.065,0.886-0.201c0.263-0.135,0.485-0.33,0.668-0.588c0.184-0.258,0.324-0.574,0.422-0.947
				c0.097-0.375,0.146-0.805,0.146-1.286c0-0.489-0.045-0.925-0.134-1.304c-0.09-0.379-0.225-0.697-0.402-0.955
				c-0.179-0.256-0.4-0.451-0.668-0.586c-0.266-0.133-0.579-0.199-0.936-0.199c-0.271,0-0.521,0.037-0.753,0.107
				c-0.232,0.072-0.437,0.176-0.612,0.307c-0.175,0.132-0.32,0.292-0.436,0.479c-0.114,0.188-0.188,0.398-0.224,0.631h-1.343V18.461
				z"/>
			<path fill="#002561" d="M113.637,23.913v-7.896h1.271v4.449c0,0.356,0.049,0.688,0.147,0.989
				c0.099,0.304,0.247,0.563,0.444,0.785c0.198,0.222,0.444,0.396,0.741,0.521c0.296,0.125,0.642,0.188,1.036,0.188
				c0.251,0,0.477-0.037,0.676-0.115c0.198-0.076,0.367-0.185,0.508-0.324c0.14-0.139,0.247-0.307,0.322-0.502
				c0.074-0.197,0.112-0.416,0.112-0.656v-5.334h1.289v5.179c0,0.43-0.043,0.823-0.13,1.181c-0.086,0.357-0.234,0.664-0.444,0.92
				s-0.489,0.454-0.84,0.598c-0.35,0.144-0.79,0.215-1.318,0.215c-0.594,0-1.104-0.121-1.531-0.36s-0.778-0.606-1.051-1.104v1.271
				h-1.233V23.913z"/>
			<path fill="#002561" d="M115.467,24.952h1.924v0.944c0,0.302,0.063,0.527,0.19,0.679c0.127,0.149,0.327,0.226,0.6,0.226
				c0.527,0,0.79-0.301,0.79-0.902v-0.945h1.214v0.945c0,0.254-0.035,0.494-0.104,0.723c-0.069,0.229-0.183,0.426-0.341,0.596
				c-0.158,0.168-0.365,0.303-0.621,0.401c-0.257,0.099-0.568,0.147-0.938,0.147c-0.367,0-0.678-0.045-0.934-0.135
				c-0.256-0.089-0.464-0.216-0.626-0.381c-0.161-0.164-0.278-0.361-0.354-0.59c-0.074-0.229-0.109-0.482-0.109-0.764h-0.691V24.952
				z"/>
			<path fill="#002561" d="M126.807,20.217c-0.072-0.016-0.202-0.029-0.388-0.037c-0.188-0.011-0.407-0.011-0.661,0
				c-0.201,0.008-0.413,0.024-0.637,0.047c-0.225,0.021-0.445,0.058-0.663,0.104c-0.218,0.05-0.427,0.111-0.628,0.188
				c-0.201,0.076-0.377,0.174-0.529,0.291s-0.272,0.258-0.362,0.418c-0.089,0.162-0.134,0.35-0.134,0.563
				c0,0.245,0.047,0.446,0.141,0.606c0.095,0.16,0.218,0.287,0.369,0.381c0.152,0.095,0.323,0.16,0.514,0.195
				c0.189,0.035,0.382,0.054,0.575,0.054c0.147,0,0.284-0.009,0.409-0.028s0.246-0.042,0.362-0.07v1.002
				c-0.175,0.052-0.348,0.09-0.517,0.115c-0.17,0.026-0.356,0.041-0.561,0.041c-0.352,0-0.684-0.039-1-0.117
				c-0.314-0.078-0.591-0.207-0.828-0.382c-0.235-0.176-0.425-0.401-0.563-0.68c-0.141-0.276-0.209-0.617-0.209-1.019
				c0-0.394,0.064-0.732,0.194-1.023c0.13-0.29,0.306-0.537,0.524-0.742c0.219-0.206,0.474-0.374,0.764-0.504
				s0.595-0.232,0.913-0.307c0.318-0.072,0.643-0.123,0.973-0.151c0.328-0.028,0.643-0.045,0.939-0.048
				c0.191,0,0.371,0.003,0.538,0.01c0.168,0.007,0.323,0.014,0.464,0.02V18.43c0-0.313-0.052-0.567-0.155-0.764
				c-0.104-0.193-0.238-0.345-0.406-0.453c-0.168-0.107-0.356-0.181-0.564-0.219c-0.209-0.038-0.417-0.057-0.624-0.057
				c-0.272,0-0.524,0.024-0.757,0.074c-0.232,0.051-0.433,0.135-0.604,0.254c-0.17,0.121-0.307,0.278-0.408,0.477
				c-0.103,0.197-0.159,0.443-0.171,0.738h-1.313c0.01-0.326,0.058-0.618,0.146-0.875c0.087-0.258,0.207-0.482,0.356-0.678
				c0.151-0.194,0.328-0.358,0.532-0.494c0.204-0.135,0.428-0.246,0.674-0.33c0.246-0.088,0.508-0.148,0.786-0.188
				c0.278-0.037,0.563-0.057,0.857-0.057c0.214,0,0.435,0.015,0.661,0.043c0.228,0.027,0.45,0.076,0.668,0.146
				c0.219,0.071,0.424,0.168,0.616,0.291c0.193,0.12,0.362,0.276,0.508,0.465c0.146,0.188,0.262,0.412,0.347,0.672
				c0.084,0.262,0.127,0.565,0.127,0.914v5.521h-1.274L126.807,20.217L126.807,20.217z"/>
			<path fill="#002561" d="M129.507,17.883c0-0.248,0.031-0.466,0.094-0.652c0.063-0.188,0.148-0.353,0.254-0.489
				c0.106-0.14,0.229-0.254,0.369-0.347c0.14-0.092,0.288-0.166,0.444-0.224c0.157-0.057,0.315-0.096,0.478-0.12
				c0.162-0.022,0.316-0.033,0.463-0.033h1.04v1.076h-0.714c-0.082,0-0.185,0.006-0.309,0.017s-0.245,0.043-0.362,0.097
				c-0.118,0.053-0.218,0.137-0.301,0.251c-0.083,0.115-0.125,0.274-0.125,0.481c0,0.232,0.031,0.421,0.092,0.564
				c0.062,0.145,0.146,0.258,0.251,0.34c0.107,0.08,0.233,0.139,0.379,0.172c0.146,0.032,0.303,0.054,0.474,0.063h0.615v1.059
				h-0.615c-0.18,0.01-0.343,0.028-0.489,0.06c-0.147,0.028-0.273,0.089-0.376,0.176c-0.104,0.088-0.186,0.216-0.243,0.382
				c-0.058,0.165-0.087,0.393-0.087,0.678c0,0.263,0.053,0.494,0.16,0.69c0.106,0.197,0.249,0.362,0.426,0.493
				c0.177,0.133,0.382,0.23,0.614,0.295c0.231,0.063,0.474,0.096,0.725,0.096c0.279,0,0.537-0.035,0.774-0.109
				c0.235-0.073,0.439-0.193,0.61-0.36c0.17-0.166,0.305-0.382,0.4-0.647c0.096-0.267,0.143-0.594,0.143-0.979v-4.892h1.271v5.16
				c0,0.477-0.084,0.896-0.254,1.262c-0.169,0.367-0.399,0.673-0.689,0.92c-0.29,0.248-0.628,0.435-1.015,0.561
				c-0.388,0.125-0.801,0.188-1.24,0.188c-0.272,0-0.543-0.023-0.811-0.07c-0.27-0.048-0.523-0.118-0.766-0.213
				c-0.241-0.095-0.466-0.212-0.674-0.354c-0.209-0.144-0.388-0.311-0.539-0.506c-0.149-0.193-0.269-0.414-0.354-0.66
				s-0.129-0.519-0.129-0.815c0-0.224,0.018-0.431,0.054-0.623s0.096-0.37,0.181-0.529c0.084-0.159,0.196-0.301,0.334-0.422
				c0.138-0.12,0.31-0.219,0.512-0.293c-0.231-0.092-0.417-0.205-0.557-0.34c-0.14-0.134-0.247-0.278-0.322-0.435
				c-0.075-0.155-0.125-0.315-0.147-0.481C129.519,18.197,129.507,18.037,129.507,17.883z"/>
			<path fill="#002561" d="M131.99,14.684v-1.654h1.236v0.672h3.792v0.982H131.99z"/>
			<path fill="#002561" d="M139.524,22.6c0.058,0.14,0.136,0.24,0.235,0.307c0.1,0.064,0.208,0.1,0.324,0.1
				c0.185,0,0.331-0.055,0.438-0.162c0.107-0.108,0.16-0.238,0.16-0.394v-5.451h-1.1v-0.981h2.37v6.18
				c0,0.338-0.049,0.628-0.146,0.868c-0.097,0.239-0.229,0.438-0.399,0.592c-0.17,0.156-0.369,0.271-0.601,0.342
				c-0.229,0.071-0.478,0.108-0.741,0.108c-0.266,0-0.498-0.034-0.695-0.102s-0.369-0.164-0.516-0.293
				c-0.146-0.127-0.27-0.279-0.372-0.461c-0.102-0.18-0.191-0.383-0.27-0.609l-1.172-3.354h1.308L139.524,22.6z"/>
			<path fill="#002561" d="M143.899,14.723c0-0.11,0.013-0.225,0.035-0.342c0.024-0.117,0.058-0.229,0.103-0.339
				c0.044-0.108,0.098-0.209,0.162-0.301c0.063-0.093,0.137-0.171,0.219-0.233h-2.54l0.578-1.021h3.622l0.268,1.021
				c-0.16,0-0.31,0.026-0.452,0.08c-0.141,0.053-0.265,0.133-0.374,0.235c-0.107,0.104-0.192,0.233-0.256,0.392
				c-0.063,0.155-0.094,0.338-0.094,0.545v8.17h0.828v0.982h-2.099V14.723L143.899,14.723z"/>
			<path fill="#002561" d="M147.271,23.913v-7.896h1.271v4.449c0,0.356,0.05,0.688,0.147,0.989c0.099,0.302,0.247,0.563,0.444,0.785
				c0.198,0.222,0.445,0.396,0.741,0.521s0.642,0.188,1.037,0.188c0.251,0,0.476-0.037,0.675-0.115
				c0.199-0.076,0.368-0.185,0.508-0.324c0.14-0.139,0.247-0.307,0.322-0.502c0.075-0.197,0.112-0.416,0.112-0.656v-5.334h1.289
				v5.179c0,0.43-0.043,0.823-0.13,1.181c-0.087,0.358-0.233,0.664-0.443,0.92s-0.491,0.454-0.841,0.598s-0.789,0.215-1.319,0.215
				c-0.592,0-1.104-0.121-1.531-0.36s-0.778-0.606-1.051-1.104v1.271h-1.231V23.913z"/>
			<path fill="#002561" d="M152.587,12.276h1.231v2.428h-1.231V12.276z"/>
			<path fill="#002561" d="M160.441,20.217c-0.071-0.016-0.201-0.029-0.388-0.037c-0.187-0.011-0.407-0.011-0.661,0
				c-0.201,0.008-0.413,0.024-0.637,0.047c-0.224,0.021-0.445,0.058-0.663,0.104c-0.218,0.05-0.428,0.111-0.628,0.188
				c-0.201,0.076-0.377,0.174-0.529,0.291c-0.151,0.117-0.271,0.258-0.361,0.418c-0.09,0.162-0.135,0.35-0.135,0.563
				c0,0.245,0.047,0.446,0.142,0.606c0.094,0.16,0.217,0.287,0.369,0.381c0.151,0.095,0.322,0.16,0.513,0.195
				c0.188,0.035,0.381,0.054,0.576,0.054c0.146,0,0.284-0.009,0.409-0.028s0.245-0.042,0.361-0.07v1.002
				c-0.175,0.052-0.348,0.09-0.517,0.115c-0.169,0.026-0.356,0.041-0.561,0.041c-0.352,0-0.684-0.039-1-0.117
				c-0.314-0.078-0.591-0.207-0.828-0.382c-0.236-0.176-0.425-0.401-0.563-0.68c-0.139-0.276-0.209-0.617-0.209-1.019
				c0-0.394,0.064-0.732,0.195-1.023c0.13-0.29,0.305-0.537,0.524-0.742c0.219-0.206,0.475-0.374,0.765-0.504
				s0.594-0.232,0.912-0.307c0.318-0.072,0.643-0.123,0.973-0.151c0.329-0.028,0.643-0.045,0.939-0.048
				c0.191,0,0.371,0.003,0.538,0.01c0.168,0.007,0.323,0.014,0.464,0.02V18.43c0-0.313-0.052-0.567-0.154-0.764
				c-0.104-0.193-0.239-0.345-0.407-0.453c-0.168-0.107-0.356-0.181-0.564-0.219c-0.209-0.038-0.417-0.057-0.624-0.057
				c-0.272,0-0.524,0.024-0.757,0.074c-0.231,0.051-0.434,0.135-0.604,0.254c-0.171,0.121-0.308,0.278-0.409,0.477
				c-0.103,0.197-0.159,0.443-0.172,0.738h-1.313c0.011-0.326,0.059-0.618,0.146-0.875c0.087-0.258,0.207-0.482,0.356-0.678
				c0.151-0.194,0.328-0.358,0.532-0.494c0.204-0.135,0.428-0.246,0.674-0.33c0.246-0.088,0.509-0.148,0.786-0.188
				c0.278-0.037,0.564-0.057,0.858-0.057c0.094,0,0.197,0.005,0.309,0.015c0.112,0.011,0.227,0.024,0.343,0.044
				c0.117,0.021,0.235,0.047,0.354,0.075c0.118,0.03,0.228,0.063,0.332,0.103c0.141-0.004,0.268-0.033,0.381-0.09
				c0.112-0.057,0.209-0.125,0.289-0.209c0.08-0.082,0.142-0.176,0.186-0.275c0.044-0.102,0.069-0.198,0.075-0.295h1.389
				c0,0.135-0.026,0.277-0.08,0.432c-0.055,0.152-0.137,0.303-0.247,0.445c-0.111,0.142-0.252,0.271-0.421,0.387
				c-0.169,0.115-0.369,0.203-0.599,0.26c0.088,0.085,0.17,0.184,0.247,0.299c0.077,0.114,0.143,0.241,0.195,0.383
				c0.053,0.143,0.095,0.293,0.127,0.453c0.031,0.162,0.047,0.33,0.047,0.508v5.521h-1.274v-3.696H160.441z"/>
			<path fill="#002561" d="M163.26,23.913v-7.896h1.27v4.449c0,0.356,0.05,0.688,0.148,0.989c0.099,0.304,0.247,0.563,0.444,0.785
				s0.444,0.396,0.74,0.521c0.297,0.125,0.643,0.188,1.037,0.188c0.251,0,0.477-0.037,0.676-0.115
				c0.198-0.076,0.367-0.185,0.508-0.324c0.14-0.139,0.247-0.307,0.321-0.502c0.075-0.197,0.113-0.416,0.113-0.656v-5.334h1.289
				v5.179c0,0.43-0.043,0.823-0.13,1.181c-0.086,0.357-0.234,0.664-0.444,0.92s-0.489,0.454-0.84,0.598
				c-0.35,0.144-0.79,0.215-1.318,0.215c-0.594,0-1.104-0.121-1.531-0.36s-0.779-0.606-1.052-1.104v1.271h-1.231V23.913z"/>
			<path fill="#002561" d="M174.624,22.986c0.257,0,0.483-0.028,0.682-0.087c0.197-0.058,0.37-0.138,0.518-0.237
				c0.146-0.1,0.271-0.219,0.371-0.355c0.102-0.135,0.182-0.281,0.242-0.437c0.063-0.155,0.105-0.317,0.132-0.485
				c0.027-0.166,0.04-0.332,0.04-0.496v-4.871h1.289v4.717c0,0.281-0.021,0.563-0.061,0.838c-0.041,0.275-0.11,0.538-0.207,0.787
				c-0.097,0.25-0.228,0.479-0.388,0.689c-0.162,0.209-0.363,0.393-0.604,0.547c-0.242,0.155-0.529,0.276-0.861,0.361
				c-0.332,0.087-0.716,0.131-1.151,0.131c-0.439,0-0.825-0.044-1.157-0.131c-0.332-0.085-0.62-0.206-0.863-0.361
				c-0.243-0.154-0.444-0.338-0.605-0.547c-0.162-0.212-0.29-0.439-0.387-0.689c-0.096-0.249-0.162-0.512-0.201-0.787
				s-0.06-0.557-0.06-0.838v-4.717h1.271v4.871c0,0.164,0.014,0.33,0.042,0.496c0.027,0.168,0.073,0.33,0.136,0.485
				c0.063,0.153,0.145,0.301,0.245,0.437c0.101,0.138,0.225,0.256,0.374,0.355c0.148,0.1,0.323,0.18,0.521,0.237
				C174.138,22.958,174.366,22.986,174.624,22.986z"/>
			<path fill="#002561" d="M173.179,24.952h1.924v0.944c0,0.302,0.063,0.527,0.19,0.679c0.126,0.149,0.327,0.226,0.6,0.226
				c0.526,0,0.79-0.301,0.79-0.902v-0.945h1.213v0.945c0,0.254-0.034,0.494-0.104,0.723s-0.184,0.426-0.341,0.596
				c-0.159,0.168-0.365,0.303-0.621,0.401c-0.255,0.099-0.568,0.147-0.938,0.147c-0.367,0-0.678-0.045-0.934-0.135
				c-0.255-0.089-0.464-0.216-0.625-0.381c-0.161-0.164-0.279-0.361-0.354-0.59s-0.109-0.482-0.109-0.764h-0.692L173.179,24.952
				L173.179,24.952z"/>
			<path fill="#002561" d="M180.385,21.368c0,0.288,0.046,0.534,0.137,0.738s0.214,0.37,0.369,0.499s0.336,0.224,0.543,0.283
				c0.207,0.063,0.428,0.093,0.663,0.093c0.173,0,0.354-0.021,0.541-0.063c0.188-0.04,0.36-0.108,0.515-0.206
				c0.155-0.098,0.284-0.226,0.387-0.384c0.102-0.157,0.152-0.353,0.152-0.586c0-0.216-0.045-0.399-0.136-0.55
				s-0.216-0.277-0.374-0.385c-0.158-0.104-0.345-0.192-0.56-0.266c-0.214-0.07-0.444-0.138-0.689-0.197
				c-0.201-0.049-0.405-0.106-0.614-0.17c-0.209-0.064-0.408-0.142-0.602-0.229s-0.374-0.188-0.543-0.306
				c-0.17-0.116-0.318-0.252-0.445-0.404c-0.127-0.153-0.227-0.328-0.299-0.521c-0.072-0.195-0.108-0.416-0.108-0.664
				c0-0.254,0.036-0.484,0.105-0.692c0.071-0.209,0.168-0.396,0.292-0.556c0.124-0.162,0.27-0.303,0.438-0.422
				c0.167-0.119,0.349-0.218,0.543-0.297c0.193-0.078,0.396-0.136,0.604-0.174c0.208-0.037,0.418-0.056,0.628-0.056
				c0.382,0,0.746,0.046,1.089,0.138c0.345,0.094,0.646,0.241,0.903,0.441c0.259,0.203,0.464,0.464,0.616,0.785
				c0.15,0.318,0.229,0.707,0.232,1.16h-1.289c0-0.22-0.035-0.42-0.104-0.603c-0.071-0.183-0.171-0.337-0.301-0.468
				s-0.286-0.23-0.467-0.305c-0.18-0.07-0.379-0.107-0.595-0.107c-0.193,0-0.377,0.023-0.55,0.07
				c-0.172,0.047-0.323,0.117-0.452,0.213c-0.128,0.094-0.229,0.211-0.303,0.354c-0.074,0.145-0.111,0.309-0.111,0.497
				c0,0.194,0.047,0.358,0.142,0.491c0.094,0.133,0.221,0.247,0.381,0.34c0.16,0.095,0.345,0.173,0.555,0.236
				c0.21,0.063,0.431,0.121,0.663,0.178c0.417,0.104,0.79,0.215,1.117,0.332c0.328,0.117,0.604,0.264,0.828,0.436
				c0.225,0.174,0.395,0.381,0.513,0.625c0.117,0.245,0.176,0.543,0.176,0.896c0,0.321-0.04,0.608-0.12,0.86
				c-0.08,0.25-0.188,0.469-0.327,0.652c-0.138,0.186-0.302,0.342-0.491,0.469s-0.394,0.229-0.611,0.309
				c-0.218,0.078-0.446,0.134-0.687,0.167c-0.24,0.032-0.479,0.05-0.718,0.05c-0.263,0-0.519-0.021-0.767-0.064
				c-0.248-0.045-0.48-0.113-0.698-0.209c-0.218-0.093-0.418-0.213-0.6-0.356c-0.183-0.146-0.338-0.316-0.468-0.519
				c-0.131-0.199-0.231-0.429-0.305-0.687c-0.072-0.257-0.107-0.547-0.107-0.87h1.309V21.368z"/>
			<path fill="#002561" d="M196.913,23.913H195.7l-0.038-1.271c-0.101,0.193-0.223,0.381-0.365,0.556
				c-0.143,0.176-0.303,0.331-0.482,0.466c-0.179,0.135-0.376,0.242-0.592,0.321c-0.216,0.08-0.45,0.121-0.701,0.121
				c-0.452,0-0.829-0.066-1.133-0.195c-0.305-0.13-0.548-0.319-0.731-0.567c-0.184-0.246-0.313-0.552-0.391-0.912
				s-0.115-0.772-0.115-1.236v-2.217c0-0.243-0.033-0.486-0.101-0.729s-0.181-0.458-0.341-0.65s-0.37-0.351-0.63-0.471
				c-0.261-0.121-0.583-0.185-0.97-0.191c-0.326-0.002-0.613,0.037-0.862,0.119c-0.25,0.08-0.459,0.188-0.63,0.322
				c-0.172,0.133-0.304,0.28-0.397,0.443s-0.15,0.324-0.169,0.484c0.091,0.053,0.173,0.123,0.245,0.213
				c0.072,0.091,0.133,0.193,0.181,0.312c0.049,0.117,0.086,0.246,0.113,0.386c0.027,0.141,0.04,0.287,0.04,0.44v3.272h0.847v0.982
				h-2.116v-4.275c0-0.121-0.009-0.246-0.025-0.369c-0.019-0.123-0.05-0.243-0.098-0.361c-0.047-0.118-0.111-0.229-0.194-0.329
				s-0.19-0.192-0.322-0.271c0.069-0.299,0.187-0.594,0.351-0.891c0.165-0.294,0.386-0.559,0.661-0.792s0.61-0.423,1.004-0.567
				c0.394-0.144,0.853-0.215,1.376-0.215c0.424,0,0.8,0.043,1.129,0.127s0.617,0.201,0.865,0.351
				c0.248,0.147,0.457,0.327,0.628,0.532c0.17,0.209,0.31,0.434,0.414,0.676c0.105,0.244,0.182,0.502,0.229,0.773
				c0.046,0.272,0.069,0.551,0.069,0.834v2.215c0,0.298,0.029,0.549,0.088,0.752c0.058,0.205,0.141,0.369,0.25,0.494
				c0.107,0.125,0.238,0.215,0.393,0.271s0.328,0.082,0.522,0.082c0.308,0,0.58-0.062,0.82-0.188c0.24-0.125,0.442-0.299,0.607-0.52
				c0.165-0.223,0.29-0.482,0.374-0.785s0.127-0.633,0.127-0.99v-4.449h1.289v7.897H196.913z"/>
			<path fill="#002561" d="M197.299,13.547c-0.474,0-0.836,0.092-1.087,0.272c-0.25,0.182-0.376,0.471-0.376,0.864h-1.195
				c0-0.322,0.063-0.611,0.185-0.869s0.297-0.477,0.523-0.656c0.229-0.18,0.505-0.318,0.834-0.416
				c0.33-0.098,0.701-0.148,1.115-0.154L197.299,13.547L197.299,13.547z"/>
			<path fill="#002561" d="M204.771,16.938c-0.245-0.004-0.467,0.018-0.668,0.063c-0.2,0.046-0.381,0.105-0.543,0.181
				c-0.162,0.074-0.303,0.162-0.423,0.26c-0.121,0.097-0.223,0.197-0.306,0.301s-0.147,0.204-0.193,0.303
				c-0.045,0.1-0.073,0.188-0.083,0.262c0.091,0.054,0.173,0.125,0.245,0.215s0.132,0.191,0.181,0.311
				c0.049,0.117,0.086,0.246,0.113,0.387c0.027,0.14,0.04,0.285,0.04,0.439v4.256h-1.27v-4.275c0-0.121-0.01-0.246-0.026-0.369
				c-0.019-0.123-0.049-0.243-0.097-0.361c-0.049-0.118-0.112-0.229-0.195-0.329s-0.19-0.192-0.322-0.271
				c0.069-0.299,0.187-0.594,0.354-0.891c0.166-0.294,0.392-0.559,0.677-0.792s0.635-0.423,1.049-0.567
				c0.414-0.144,0.903-0.215,1.467-0.215c0.445,0,0.841,0.043,1.188,0.127c0.346,0.084,0.649,0.201,0.91,0.351
				c0.26,0.147,0.479,0.327,0.657,0.532c0.18,0.209,0.324,0.434,0.436,0.676c0.11,0.244,0.19,0.502,0.24,0.773
				c0.048,0.272,0.072,0.551,0.072,0.834v4.777h-1.289v-4.936c0-0.243-0.036-0.486-0.109-0.729c-0.074-0.24-0.197-0.458-0.369-0.65
				c-0.173-0.192-0.401-0.351-0.686-0.472C205.54,17.008,205.189,16.944,204.771,16.938z"/>
			<path fill="#002561" d="M210.765,21.368c0,0.288,0.046,0.534,0.137,0.738c0.092,0.204,0.215,0.37,0.369,0.499
				c0.155,0.129,0.336,0.224,0.543,0.283c0.207,0.063,0.429,0.093,0.663,0.093c0.173,0,0.354-0.021,0.541-0.063
				c0.188-0.04,0.36-0.108,0.516-0.206c0.154-0.098,0.283-0.226,0.386-0.384c0.102-0.157,0.152-0.353,0.152-0.586
				c0-0.216-0.045-0.399-0.136-0.55s-0.216-0.277-0.374-0.385c-0.158-0.104-0.345-0.192-0.56-0.266
				c-0.214-0.07-0.444-0.138-0.689-0.197c-0.201-0.049-0.404-0.106-0.613-0.17c-0.209-0.064-0.409-0.142-0.603-0.229
				s-0.374-0.188-0.543-0.306c-0.17-0.116-0.318-0.252-0.445-0.404c-0.127-0.153-0.227-0.328-0.299-0.521
				c-0.072-0.195-0.107-0.416-0.107-0.664c0-0.254,0.034-0.484,0.104-0.692c0.071-0.209,0.168-0.396,0.292-0.556
				c0.124-0.162,0.271-0.303,0.438-0.422c0.167-0.119,0.349-0.218,0.543-0.297c0.193-0.078,0.396-0.136,0.604-0.174
				c0.208-0.037,0.418-0.056,0.628-0.056c0.382,0,0.746,0.046,1.089,0.138c0.345,0.094,0.646,0.241,0.903,0.441
				c0.259,0.203,0.464,0.464,0.616,0.785c0.15,0.318,0.229,0.707,0.231,1.16h-1.289c0-0.22-0.035-0.42-0.105-0.603
				s-0.171-0.337-0.301-0.468s-0.286-0.23-0.466-0.305c-0.181-0.07-0.38-0.107-0.596-0.107c-0.193,0-0.377,0.023-0.55,0.07
				c-0.172,0.047-0.323,0.117-0.452,0.213c-0.128,0.094-0.229,0.211-0.303,0.354c-0.073,0.145-0.11,0.309-0.11,0.497
				c0,0.194,0.047,0.358,0.142,0.491c0.094,0.133,0.221,0.247,0.381,0.34c0.16,0.095,0.345,0.173,0.555,0.236
				c0.21,0.063,0.431,0.121,0.663,0.178c0.417,0.104,0.79,0.215,1.117,0.332c0.328,0.117,0.604,0.264,0.828,0.436
				c0.225,0.174,0.395,0.381,0.513,0.625c0.117,0.245,0.176,0.543,0.176,0.896c0,0.321-0.04,0.608-0.121,0.86
				c-0.08,0.25-0.188,0.469-0.326,0.652c-0.139,0.186-0.303,0.342-0.492,0.469s-0.394,0.229-0.611,0.309
				c-0.218,0.078-0.446,0.134-0.687,0.167c-0.24,0.032-0.479,0.05-0.718,0.05c-0.263,0-0.519-0.021-0.767-0.064
				c-0.248-0.045-0.48-0.113-0.698-0.209c-0.218-0.093-0.418-0.213-0.6-0.356c-0.183-0.146-0.338-0.316-0.468-0.519
				c-0.131-0.199-0.231-0.429-0.305-0.687c-0.071-0.257-0.107-0.547-0.107-0.87h1.311V21.368z"/>
			<path fill="#002561" d="M216.353,18.461c0.075-0.389,0.201-0.744,0.376-1.068c0.175-0.325,0.402-0.604,0.681-0.836
				c0.276-0.231,0.607-0.412,0.991-0.539c0.385-0.131,0.824-0.193,1.32-0.193c0.63,0,1.165,0.105,1.604,0.318
				c0.438,0.214,0.795,0.508,1.07,0.881c0.273,0.373,0.473,0.813,0.596,1.318c0.12,0.506,0.184,1.053,0.184,1.641
				c0,0.365-0.028,0.722-0.083,1.066c-0.055,0.346-0.141,0.67-0.257,0.975c-0.115,0.304-0.266,0.582-0.446,0.835
				c-0.182,0.252-0.399,0.47-0.653,0.653s-0.546,0.326-0.878,0.426c-0.33,0.101-0.703,0.15-1.116,0.15
				c-0.417,0-0.791-0.051-1.122-0.15s-0.622-0.24-0.875-0.422c-0.253-0.181-0.469-0.396-0.646-0.648
				c-0.179-0.253-0.325-0.529-0.438-0.834c-0.113-0.305-0.196-0.63-0.249-0.977c-0.054-0.348-0.08-0.705-0.08-1.074V19.54h3.41
				v0.982h-2.079c0,0.37,0.05,0.708,0.149,1.014c0.102,0.308,0.243,0.567,0.426,0.785c0.185,0.219,0.403,0.387,0.659,0.507
				c0.255,0.118,0.537,0.178,0.845,0.178c0.328,0,0.625-0.065,0.886-0.201c0.262-0.135,0.484-0.33,0.668-0.588
				s0.324-0.574,0.421-0.947c0.098-0.375,0.146-0.805,0.146-1.286c0-0.489-0.045-0.925-0.134-1.304
				c-0.091-0.379-0.225-0.697-0.402-0.955c-0.179-0.256-0.401-0.451-0.668-0.586c-0.267-0.133-0.578-0.199-0.936-0.199
				c-0.27,0-0.521,0.037-0.753,0.107c-0.232,0.072-0.436,0.176-0.612,0.307c-0.175,0.132-0.319,0.292-0.435,0.479
				c-0.114,0.188-0.189,0.398-0.224,0.631h-1.346V18.461z"/>
			<path fill="#002561" d="M227.443,16.938c-0.244-0.004-0.468,0.018-0.669,0.063c-0.199,0.046-0.382,0.105-0.543,0.181
				c-0.161,0.074-0.303,0.162-0.423,0.26c-0.121,0.097-0.223,0.197-0.306,0.301s-0.147,0.204-0.193,0.303
				c-0.045,0.1-0.072,0.188-0.082,0.262c0.091,0.054,0.173,0.125,0.244,0.215c0.072,0.09,0.133,0.191,0.181,0.311
				c0.051,0.117,0.088,0.246,0.113,0.387c0.026,0.14,0.041,0.285,0.041,0.439v4.256h-1.271v-4.275c0-0.121-0.009-0.246-0.026-0.369
				c-0.017-0.123-0.049-0.243-0.096-0.361c-0.048-0.118-0.112-0.229-0.195-0.329s-0.19-0.192-0.322-0.271
				c0.068-0.299,0.188-0.594,0.354-0.891c0.167-0.294,0.392-0.559,0.678-0.792c0.285-0.233,0.635-0.423,1.049-0.567
				c0.413-0.144,0.903-0.215,1.468-0.215c0.445,0,0.842,0.043,1.188,0.127s0.649,0.201,0.909,0.351
				c0.261,0.147,0.479,0.327,0.659,0.532c0.179,0.209,0.322,0.434,0.435,0.676c0.111,0.244,0.191,0.502,0.241,0.773
				c0.048,0.272,0.072,0.551,0.072,0.834v4.777h-1.289v-4.936c0-0.243-0.037-0.486-0.11-0.729s-0.197-0.458-0.369-0.65
				c-0.173-0.192-0.401-0.351-0.685-0.472C228.211,17.008,227.86,16.944,227.443,16.938z"/>
			<path fill="#002561" d="M233.761,23.913h-1.27v-4.778c0-0.244,0.015-0.486,0.044-0.725s0.081-0.469,0.152-0.689
				c0.072-0.222,0.167-0.43,0.284-0.625c0.118-0.195,0.264-0.371,0.438-0.526s0.38-0.287,0.615-0.396
				c0.237-0.107,0.51-0.188,0.816-0.236l1.039,1.08l0.964-1.08c0.48,0.068,0.876,0.203,1.188,0.406
				c0.312,0.201,0.558,0.447,0.737,0.737c0.181,0.29,0.307,0.612,0.376,0.968c0.071,0.354,0.105,0.715,0.105,1.086v4.778h-1.273
				v-4.935c0-0.163-0.017-0.34-0.047-0.528c-0.032-0.188-0.082-0.372-0.15-0.546s-0.16-0.329-0.272-0.465
				c-0.113-0.137-0.251-0.233-0.414-0.29l-1.059,1.101c-0.021,0.02-0.046,0.036-0.072,0.053c-0.027,0.017-0.055,0.022-0.083,0.022
				c-0.041,0-0.075-0.007-0.104-0.022c-0.027-0.017-0.052-0.033-0.069-0.053l-1.082-1.101c-0.16,0.063-0.295,0.163-0.404,0.301
				c-0.11,0.138-0.199,0.293-0.266,0.463c-0.068,0.172-0.117,0.351-0.148,0.54c-0.031,0.188-0.047,0.362-0.047,0.525v3.298
				l1.793-2.062h-0.735v-0.981h2.027v0.981L233.761,23.913z"/>
			<path fill="#002561" d="M238.017,12.276h1.232v2.428h-1.232V12.276z"/>
			<path fill="#002561" d="M240.543,18.461c0.075-0.389,0.2-0.744,0.376-1.068c0.176-0.325,0.401-0.604,0.681-0.836
				c0.276-0.231,0.607-0.412,0.991-0.539c0.384-0.131,0.824-0.193,1.319-0.193c0.631,0,1.165,0.105,1.604,0.318
				c0.439,0.214,0.796,0.508,1.07,0.881c0.273,0.373,0.474,0.813,0.596,1.318s0.185,1.053,0.185,1.641
				c0,0.365-0.027,0.722-0.082,1.066c-0.057,0.346-0.142,0.67-0.258,0.975c-0.115,0.304-0.265,0.582-0.445,0.835
				c-0.184,0.252-0.4,0.47-0.655,0.653c-0.253,0.184-0.546,0.326-0.876,0.426c-0.331,0.101-0.704,0.15-1.118,0.15
				c-0.416,0-0.791-0.051-1.121-0.15c-0.331-0.1-0.623-0.24-0.875-0.422c-0.252-0.181-0.469-0.396-0.646-0.648
				c-0.18-0.253-0.324-0.529-0.438-0.834c-0.113-0.305-0.196-0.63-0.249-0.977c-0.054-0.348-0.08-0.705-0.08-1.074V19.54h3.409
				v0.982h-2.079c0,0.37,0.052,0.708,0.151,1.014c0.1,0.308,0.242,0.567,0.426,0.785c0.184,0.219,0.403,0.387,0.658,0.507
				c0.256,0.118,0.537,0.178,0.844,0.178c0.33,0,0.625-0.065,0.888-0.201c0.262-0.135,0.483-0.33,0.668-0.588
				s0.323-0.574,0.421-0.947c0.098-0.375,0.146-0.805,0.146-1.286c0-0.489-0.045-0.925-0.134-1.304
				c-0.09-0.379-0.225-0.697-0.403-0.955c-0.178-0.256-0.399-0.451-0.667-0.586c-0.267-0.133-0.579-0.199-0.937-0.199
				c-0.271,0-0.521,0.037-0.752,0.107c-0.232,0.072-0.438,0.176-0.611,0.307c-0.177,0.132-0.32,0.292-0.437,0.479
				c-0.113,0.188-0.188,0.398-0.224,0.631h-1.345V18.461z"/>
			<path fill="#002561" d="M248.995,14.723c0-0.11,0.013-0.225,0.035-0.342s0.058-0.229,0.102-0.339
				c0.044-0.108,0.099-0.209,0.162-0.301c0.063-0.093,0.137-0.171,0.219-0.233h-2.54l0.579-1.021h3.622l0.268,1.021
				c-0.159,0-0.311,0.026-0.451,0.08c-0.142,0.053-0.267,0.133-0.373,0.235c-0.108,0.104-0.194,0.233-0.258,0.392
				c-0.063,0.155-0.094,0.338-0.094,0.545v8.17h0.827v0.982h-2.098V14.723L248.995,14.723z"/>
			<path fill="#002561" d="M255.431,20.217h-0.734v-0.982h2.005v0.982l-3.063,3.696h-1.27v-4.741c0-0.281,0.021-0.561,0.062-0.834
				c0.04-0.275,0.111-0.535,0.211-0.781c0.102-0.246,0.233-0.475,0.399-0.686c0.167-0.209,0.374-0.391,0.622-0.543
				c0.248-0.15,0.541-0.271,0.879-0.357c0.339-0.086,0.731-0.129,1.181-0.129c0.438,0,0.827,0.043,1.164,0.129
				c0.337,0.088,0.63,0.207,0.878,0.357c0.247,0.153,0.455,0.334,0.623,0.543c0.168,0.211,0.302,0.438,0.401,0.686
				c0.102,0.246,0.173,0.506,0.217,0.781c0.044,0.273,0.064,0.553,0.064,0.834v4.741h-1.287v-4.91c0-0.159-0.014-0.323-0.036-0.487
				c-0.023-0.164-0.064-0.322-0.124-0.477c-0.061-0.154-0.142-0.298-0.242-0.432c-0.104-0.133-0.229-0.248-0.381-0.348
				c-0.152-0.1-0.333-0.178-0.544-0.234c-0.21-0.059-0.454-0.088-0.733-0.088c-0.282,0-0.529,0.029-0.743,0.088
				c-0.214,0.058-0.396,0.136-0.553,0.234c-0.155,0.1-0.283,0.215-0.383,0.348c-0.103,0.134-0.183,0.277-0.242,0.432
				c-0.063,0.153-0.104,0.313-0.128,0.477s-0.035,0.328-0.035,0.487v3.273L255.431,20.217z"/>
			<path fill="#002561" d="M255.505,14.666V13.49h-0.673v-0.945h1.755v1.176c0.281,0,0.535-0.029,0.76-0.092
				c0.224-0.062,0.414-0.145,0.568-0.248c0.154-0.105,0.273-0.229,0.356-0.373c0.084-0.143,0.125-0.297,0.125-0.463h1.176
				c0,0.275-0.062,0.542-0.186,0.797c-0.124,0.256-0.311,0.481-0.562,0.678c-0.253,0.195-0.565,0.354-0.944,0.471
				c-0.377,0.118-0.822,0.177-1.333,0.177L255.505,14.666L255.505,14.666z"/>
			<path fill="#F27021" d="M265.734,16.016v0.828c0.15-0.16,0.303-0.304,0.454-0.427s0.313-0.229,0.486-0.313
				c0.173-0.082,0.358-0.147,0.558-0.193c0.198-0.046,0.419-0.068,0.66-0.068c0.574,0,1.051,0.073,1.432,0.221
				c0.379,0.148,0.684,0.354,0.911,0.619c0.229,0.266,0.391,0.582,0.484,0.951c0.095,0.367,0.142,0.772,0.142,1.215v5.065h-1.946
				v-5.202c0-0.17-0.028-0.322-0.085-0.457c-0.058-0.138-0.138-0.255-0.24-0.352c-0.104-0.098-0.23-0.174-0.381-0.227
				c-0.15-0.054-0.319-0.08-0.508-0.08c-0.316,0-0.595,0.047-0.83,0.145c-0.237,0.095-0.435,0.229-0.591,0.398
				c-0.156,0.172-0.274,0.373-0.354,0.609c-0.078,0.234-0.118,0.492-0.118,0.771v4.393h-1.961v-7.896H265.734L265.734,16.016z"/>
			<path fill="#F27021" d="M264.441,13.395h4.528v-1.213h1.868v2.715h-7.163L264.441,13.395z"/>
			<path fill="#F27021" d="M269.026,8.791h1.83v2.62h-1.83V8.791z"/>
			<path fill="#F27021" d="M277.446,23.913v-1.021c-0.292,0.406-0.636,0.707-1.029,0.901c-0.396,0.194-0.836,0.294-1.322,0.294
				c-0.502,0-0.928-0.087-1.279-0.258c-0.351-0.172-0.637-0.402-0.857-0.697c-0.222-0.291-0.382-0.636-0.481-1.029
				c-0.101-0.394-0.15-0.812-0.15-1.252v-4.836h1.941v4.66c0,0.241,0.03,0.463,0.09,0.662c0.061,0.198,0.153,0.368,0.282,0.51
				s0.293,0.25,0.492,0.328c0.198,0.08,0.438,0.119,0.717,0.119c0.183,0,0.363-0.033,0.546-0.097s0.347-0.171,0.491-0.319
				c0.146-0.148,0.264-0.345,0.354-0.584c0.089-0.24,0.134-0.535,0.134-0.887v-4.393h1.966v7.896h-1.894V23.913z"/>
			<path fill="#F27021" d="M272.918,13.395h4.527v-1.213h1.868v2.715h-7.163L272.918,13.395z"/>
			<path fill="#F27021" d="M277.503,8.791h1.83v2.62h-1.83V8.791z"/>
		</g>
		<rect x="263.499" y="26.217" fill="#F27021" width="15.77" height="0.965"/>
	</g>
</g>
</svg>
