<?xml version="1.0" encoding="utf-8"?>
<!-- Generator: Adobe Illustrator 19.0.0, SVG Export Plug-In . SVG Version: 6.00 Build 0)  -->
<svg version="1.1" id="Layer_1" xmlns="http://www.w3.org/2000/svg" xmlns:xlink="http://www.w3.org/1999/xlink" x="0px" y="0px"
	 width="635.3px" height="635.3px" viewBox="-2303.8 -67 635.3 635.3" style="enable-background:new -2303.8 -67 635.3 635.3;"
	 xml:space="preserve">
<style type="text/css">
	.st0{fill:none;stroke:#F26F21;stroke-width:40;stroke-miterlimit:10;}
	.st1{fill:#F26F21;stroke:#F26F21;stroke-miterlimit:10;}
</style>
<g>
	<circle class="st0" cx="-1986.2" cy="250.6" r="297.6"/>
	<path class="st1" d="M-1844.5,323l-47.1-47.1c-4.8-4.8-11-7.3-17.8-7.3c-6.7,0-13,2.6-17.8,7.3l-30.3,30.3l-83.5-83.5l30.3-30.3
		c9.8-9.8,9.8-25.7,0-35.5l-47.9-47.9c-4.8-4.8-11-7.3-17.8-7.3s-13,2.6-17.8,7.3l-21.2,21.2c-15.2,15.2-22,33.8-19.5,53.8
		c2.2,18.3,11.7,36.4,27.7,52.3l135.2,135.2c18.1,18.1,39.5,28.1,60.1,28.1l0,0c17,0,32.9-7,46-20l21.3-21.3
		C-1834.6,348.7-1834.6,332.7-1844.5,323z"/>
</g>
</svg>
